<?xml version="1.0" standalone="no"?>
<!DOCTYPE svg PUBLIC "-//W3C//DTD SVG 20010904//EN"
 "http://www.w3.org/TR/2001/REC-SVG-20010904/DTD/svg10.dtd">
<svg version="1.0" xmlns="http://www.w3.org/2000/svg"
 width="1024.000000pt" height="1024.000000pt" viewBox="0 0 1024.000000 1024.000000"
 preserveAspectRatio="xMidYMid meet">

<g transform="translate(0.000000,1024.000000) scale(0.100000,-0.100000)"
fill="#000000" stroke="none">
<path d="M6481 9783 c-17 -36 -33 -288 -25 -374 l6 -66 -66 -13 c-36 -7 -78
-10 -91 -7 -41 7 -48 -20 -43 -161 l5 -125 -29 -16 c-40 -22 -169 -104 -250
-159 -40 -26 -88 -49 -120 -56 -51 -12 -53 -14 -56 -48 -4 -43 38 -172 73
-229 14 -22 42 -58 63 -81 l37 -41 -30 6 c-16 3 -55 12 -85 21 -68 20 -178 20
-249 1 -64 -17 -146 -69 -186 -119 -17 -20 -41 -50 -55 -66 l-25 -30 -60 14
c-73 17 -145 24 -342 31 -84 3 -187 10 -230 16 -43 6 -100 13 -128 16 -63 6
-285 -20 -373 -45 -37 -11 -94 -25 -127 -33 -33 -7 -73 -18 -90 -25 -16 -7
-56 -17 -88 -23 -105 -19 -135 -31 -183 -71 -27 -22 -52 -40 -56 -40 -8 0 -76
-47 -156 -107 -98 -74 -195 -172 -245 -248 -166 -250 -195 -304 -253 -470 -35
-103 -38 -119 -42 -250 -4 -151 16 -285 56 -376 57 -130 55 -123 37 -160 -10
-19 -39 -65 -65 -104 -26 -38 -55 -83 -64 -98 -13 -21 -23 -27 -39 -24 -12 3
-47 8 -77 12 -54 6 -56 6 -92 -32 -114 -117 -151 -169 -210 -289 -34 -69 -70
-130 -81 -135 -11 -6 -37 -8 -58 -5 -48 8 -68 -12 -99 -95 -17 -49 -36 -73
-100 -135 -128 -123 -147 -134 -273 -160 -62 -12 -123 -27 -137 -32 -14 -5
-40 -7 -58 -5 -19 3 -39 0 -48 -8 -18 -15 -73 -130 -83 -174 -5 -24 -16 -33
-62 -51 -64 -24 -164 -89 -212 -138 -56 -56 -116 -155 -139 -230 -29 -90 -31
-240 -5 -334 40 -149 166 -302 302 -366 91 -43 128 -53 236 -61 99 -8 208 15
314 65 76 36 171 133 212 215 101 200 117 356 51 494 l-21 44 34 66 c26 51 40
67 59 69 14 2 81 25 150 52 69 26 150 56 180 65 30 10 72 25 93 33 20 8 40 12
44 9 7 -7 -41 -158 -61 -192 -16 -26 -40 -130 -40 -171 0 -61 43 -82 91 -45
13 11 45 23 71 27 98 14 277 75 362 123 47 27 114 63 150 81 89 44 180 110
229 166 23 26 43 45 45 43 9 -8 -55 -228 -89 -309 -52 -124 -87 -229 -94 -282
-5 -35 -2 -109 7 -195 8 -76 16 -167 16 -203 l1 -64 -70 -11 c-54 -8 -91 -23
-163 -63 -131 -74 -301 -202 -343 -259 -62 -81 -156 -255 -173 -318 -27 -99
-31 -218 -11 -335 21 -131 24 -137 89 -219 43 -53 66 -73 112 -93 122 -55 327
-74 444 -43 39 10 56 11 61 3 4 -6 10 -74 14 -152 10 -206 36 -393 66 -467 26
-69 45 -264 30 -323 -24 -98 -15 -162 43 -309 75 -185 106 -227 212 -280 45
-23 52 -31 59 -64 3 -21 29 -80 56 -132 45 -87 49 -99 49 -166 0 -58 4 -75 19
-89 13 -12 20 -37 25 -89 4 -40 10 -108 14 -152 7 -71 13 -87 49 -141 52 -77
92 -98 174 -92 47 3 66 11 96 35 58 46 63 83 28 190 -29 90 -44 205 -45 356 0
52 -6 91 -16 113 -16 33 -15 41 1 117 13 61 16 104 11 169 -6 86 -5 87 43 210
73 185 74 189 62 254 -14 71 -14 177 -2 190 6 5 24 42 41 83 25 58 32 88 31
139 l0 64 71 79 c65 72 95 96 105 86 2 -3 -11 -42 -28 -88 -30 -77 -32 -94
-33 -209 -1 -112 1 -130 22 -172 30 -60 68 -88 120 -88 31 0 42 -4 47 -19 3
-11 20 -37 37 -58 17 -21 57 -92 89 -158 33 -66 72 -132 87 -146 41 -37 195
-96 286 -108 166 -23 258 -12 388 47 94 43 163 92 309 220 139 121 183 174
204 244 13 43 12 54 -7 120 -16 61 -19 93 -15 188 3 63 12 140 21 170 64 221
66 232 72 405 l6 170 -30 83 c-17 46 -45 106 -62 133 -37 61 -38 103 -4 184
75 180 76 183 63 207 -7 13 -27 41 -45 63 -31 39 -32 43 -35 150 l-4 110 115
109 c63 60 120 114 127 120 6 6 17 56 23 110 6 55 15 105 21 112 7 8 20 10 42
4 18 -5 81 -17 140 -26 l108 -18 51 -86 c69 -113 88 -154 88 -186 0 -31 51
-84 125 -129 44 -26 51 -36 60 -77 12 -56 28 -75 111 -129 35 -23 64 -45 64
-50 0 -5 6 -9 13 -9 24 0 86 -75 127 -155 23 -44 49 -87 57 -96 19 -22 61 -30
90 -16 18 8 27 7 41 -6 22 -20 73 -22 90 -5 18 18 14 59 -8 93 -21 31 -27 85
-10 85 15 0 40 -55 47 -106 5 -37 12 -50 37 -65 41 -25 52 -24 82 6 20 20 23
29 14 44 -5 11 -10 35 -10 53 -1 18 -7 44 -15 58 -16 29 -18 40 -7 40 15 0 45
-74 48 -118 4 -54 9 -62 41 -62 31 0 108 73 100 94 -8 19 -25 117 -33 179 -6
53 -10 56 -108 83 -60 16 -76 31 -137 123 -36 55 -49 83 -49 110 0 24 -9 49
-25 71 -14 19 -25 48 -25 65 0 32 -27 66 -62 78 -10 3 -20 19 -24 34 -17 77
-26 103 -37 115 -33 34 -67 87 -67 104 0 10 9 48 20 82 13 42 20 92 20 144 0
66 7 104 41 212 22 72 45 142 51 156 6 14 19 54 29 90 31 114 117 353 149 416
36 72 138 174 210 210 151 76 247 90 466 66 123 -13 148 -11 158 14 3 7 -13
58 -34 113 -22 54 -40 104 -40 111 0 7 -22 51 -48 99 -27 47 -53 100 -59 116
-18 52 -116 221 -177 305 -32 44 -103 122 -157 174 -54 51 -99 101 -99 110 0
9 6 29 14 44 7 15 30 77 51 137 20 61 52 137 70 170 19 33 45 91 60 130 14 38
49 103 77 145 46 67 52 82 58 146 4 39 10 76 14 82 3 6 34 20 69 31 59 20 89
40 201 136 74 62 224 281 213 309 -3 8 -21 16 -41 20 -20 4 -70 25 -113 46
-43 22 -85 40 -94 40 -31 0 -26 23 24 121 49 94 50 98 50 183 -1 77 -5 95 -31
149 -17 34 -41 73 -53 86 -16 16 -30 57 -45 127 -16 73 -34 121 -61 167 -71
120 -158 248 -221 325 -35 43 -82 103 -104 135 -23 31 -45 57 -49 57 -4 0 -11
-17 -15 -37 -11 -63 -68 -175 -120 -235 -27 -31 -52 -57 -55 -57 -3 -1 -12 10
-19 24 -36 68 -260 210 -416 265 -28 10 -91 36 -140 58 -49 22 -109 48 -134
57 -25 10 -57 31 -72 48 -14 16 -31 26 -37 23 -7 -5 -11 -53 -11 -132 0 -96
-3 -124 -13 -124 -22 0 -177 81 -254 133 -39 26 -75 47 -80 47 -6 0 -46 38
-90 85 -43 47 -84 85 -89 85 -6 0 -16 -12 -23 -27z m194 -166 c30 -17 91 -57
137 -88 106 -71 125 -80 293 -144 370 -141 497 -213 584 -327 48 -64 101 -163
101 -188 0 -28 19 -34 24 -8 3 13 7 61 9 108 6 125 27 185 104 287 36 48 83
122 103 164 l37 77 52 -67 c28 -36 67 -86 87 -111 84 -104 205 -304 227 -374
41 -131 25 -323 -38 -446 -29 -57 -31 -67 -10 -50 43 36 105 197 105 274 0 46
22 25 57 -55 53 -120 43 -221 -38 -380 -16 -32 -29 -66 -29 -76 1 -17 1 -17
11 0 10 16 13 15 48 -12 42 -34 117 -72 173 -90 l37 -12 -61 -97 c-33 -53 -72
-110 -86 -125 -71 -76 -235 -197 -267 -197 -3 0 1 13 9 28 28 54 59 196 59
272 0 161 -114 363 -273 484 -63 49 -226 149 -317 195 -86 43 -155 68 -238 85
-94 19 -395 40 -470 32 -86 -10 -377 -80 -460 -111 -310 -117 -553 -325 -531
-453 19 -108 19 -117 -8 -149 -15 -18 -26 -43 -26 -60 0 -22 -7 -33 -24 -41
-21 -9 -34 -4 -103 38 -91 56 -151 116 -188 190 -15 29 -25 53 -23 54 2 1 32
17 68 34 36 18 96 55 134 83 67 50 69 52 49 68 -53 43 -115 156 -152 275 -26
85 -26 88 3 80 37 -9 101 13 168 59 98 67 277 173 343 203 38 18 83 30 121 32
l60 4 58 -96 c31 -53 68 -108 81 -123 l25 -28 -9 26 c-5 15 -32 69 -60 122
-122 228 -174 495 -139 719 l11 77 60 -65 c32 -35 83 -79 112 -97z m716 -110
c221 -95 351 -170 427 -249 l33 -34 -27 -59 c-19 -40 -29 -84 -33 -139 -7 -79
-7 -80 -21 -51 -24 52 -96 149 -142 191 -76 70 -145 104 -513 256 -52 21 -60
28 -58 49 1 13 5 60 9 104 l7 81 106 -52 c58 -29 154 -72 212 -97z m-921 -209
c12 -31 54 -171 55 -183 0 -5 -19 -8 -41 -7 -25 2 -72 -7 -118 -22 -42 -14
-79 -26 -81 -26 -7 0 -5 115 3 175 l7 50 45 6 c25 4 56 12 70 17 38 16 50 14
60 -10z m1072 -664 c223 -58 511 -216 604 -333 27 -33 71 -88 98 -122 38 -47
45 -60 28 -55 -16 5 -25 1 -38 -19 -16 -24 -16 -27 0 -43 13 -14 20 -14 36 -4
19 11 20 10 20 -28 0 -36 -2 -40 -26 -40 -21 0 -25 -4 -21 -20 3 -13 0 -20
-10 -20 -23 0 -10 -35 15 -38 27 -4 27 -11 0 -74 -17 -39 -23 -46 -30 -34 -11
19 -39 21 -56 4 -19 -19 -14 -37 13 -50 14 -6 24 -16 22 -22 -9 -26 -40 -13
-108 47 -139 119 -144 122 -469 271 -154 71 -216 92 -305 106 -104 16 -142 32
-156 67 -14 36 -14 159 0 209 16 55 83 187 99 192 7 2 10 -2 6 -12 -4 -11 0
-16 12 -16 16 0 16 -1 -2 -14 -17 -13 -18 -15 -2 -21 37 -15 53 -2 52 42 -1
40 1 42 30 46 67 8 91 6 188 -19z m-508 -533 c40 -15 -6 -23 -96 -16 -57 5
-85 10 -77 16 17 11 146 11 173 0z m-260 -63 c8 -29 18 -87 21 -128 4 -41 16
-101 27 -133 23 -66 20 -96 -17 -174 l-24 -53 -56 0 c-30 0 -55 2 -55 5 0 3
11 23 25 45 50 78 31 79 -72 1 -43 -32 -87 -60 -98 -62 -11 -3 -20 -11 -20
-19 0 -8 -40 -55 -88 -104 -49 -49 -118 -127 -154 -173 -37 -46 -70 -83 -75
-83 -4 0 -8 17 -8 38 0 60 -16 75 -70 63 -25 -5 -63 -6 -85 -2 l-40 6 -12 80
c-36 243 -41 367 -18 437 19 54 102 150 145 168 26 11 36 10 70 -5 73 -33 91
-61 144 -221 27 -82 58 -167 68 -188 26 -50 31 -41 58 91 39 190 129 432 162
434 7 0 40 6 73 14 33 7 65 14 72 14 7 1 19 -23 27 -51z m533 1 c12 -4 26 -17
32 -27 12 -23 63 -158 57 -151 -2 2 -25 33 -51 69 -26 36 -62 80 -79 99 -30
33 -30 33 -6 26 14 -4 35 -11 47 -16z m-759 4 c-82 -168 -125 -298 -135 -410
-6 -75 -17 -94 -25 -45 -15 82 -73 263 -99 306 -34 55 -35 53 41 87 41 19 193
67 213 68 5 1 7 -2 5 -6z m965 -89 c160 -68 509 -284 572 -354 l19 -21 -29 8
c-17 4 -83 7 -147 6 l-118 -1 6 24 c9 37 -14 30 -74 -22 -69 -60 -104 -121
-100 -171 l4 -38 20 45 c12 25 34 60 49 78 23 28 29 30 39 18 8 -11 44 -15
161 -18 126 -3 162 -7 222 -28 40 -13 75 -31 78 -39 3 -8 -4 -28 -16 -44 -11
-16 -46 -79 -77 -141 -30 -61 -61 -115 -68 -119 -12 -7 -40 -89 -59 -172 l-7
-30 -20 28 c-21 29 -78 64 -78 49 0 -5 14 -27 31 -48 53 -67 53 -63 -1 -178
-48 -101 -70 -128 -70 -88 0 32 -31 109 -51 128 -24 22 -24 22 6 -82 32 -109
31 -132 -2 -177 -35 -46 -250 -212 -408 -314 -113 -73 -124 -78 -203 -90 -55
-8 -100 -9 -131 -3 -100 19 -124 36 -349 243 -100 91 -181 151 -191 141 -3 -3
50 -59 118 -123 l124 -118 -34 -15 c-19 -9 -59 -24 -91 -33 -64 -18 -71 -24
-88 -80 -15 -50 -64 -152 -88 -183 l-18 -23 -45 19 -46 20 -17 85 c-9 47 -28
118 -41 158 -14 40 -25 81 -25 91 0 20 50 94 120 178 26 30 73 93 105 140 72
105 115 158 228 280 123 132 260 335 348 518 49 100 77 122 160 122 38 0 61
-5 69 -15 8 -9 30 -15 59 -15 26 0 56 -7 67 -15 10 -8 30 -15 43 -15 l24 0
-23 25 c-13 13 -31 27 -41 30 -23 8 -45 82 -53 180 l-6 70 20 -25 c106 -131
124 -150 144 -150 11 0 42 16 69 35 44 33 47 38 47 80 0 57 -16 67 -25 15 -5
-27 -15 -46 -32 -57 -24 -16 -25 -15 -73 32 -46 45 -96 127 -134 218 -8 20
-13 37 -10 37 3 0 65 -25 137 -56z m-306 -14 c33 -14 48 -28 60 -57 16 -38 50
-220 42 -227 -7 -6 -233 13 -264 23 -30 9 -30 9 10 10 46 1 98 29 116 63 7 12
12 43 11 68 0 37 -6 49 -31 72 -53 47 -126 31 -172 -38 -29 -45 -22 -122 15
-146 7 -5 8 -8 0 -8 -15 0 -59 49 -78 87 -10 20 -16 57 -16 97 l0 65 38 6 c20
4 42 8 47 11 25 10 181 -8 222 -26z m-123 -95 c32 -27 31 -60 -4 -97 -43 -46
-105 12 -79 74 10 25 33 47 49 48 3 0 18 -11 34 -25z m440 -128 c16 -13 25
-27 19 -30 -5 -3 -23 7 -38 23 -34 36 -22 40 19 7z m561 -168 c55 -10 95 -31
95 -49 0 -4 -17 1 -37 11 -63 30 -165 42 -266 29 -93 -11 -103 -10 -94 12 6
16 207 14 302 -3z m-1325 -35 c0 -15 -124 -246 -134 -249 -52 -13 -152 -33
-155 -30 -5 6 65 129 121 213 l49 72 59 0 c33 0 60 -3 60 -6z m-821 -235 c1
-18 -7 -32 -24 -43 -31 -21 -30 -21 -55 13 l-20 30 42 29 c47 33 56 28 57 -29z
m205 -95 c13 -96 8 -136 -21 -166 -15 -15 -30 -28 -33 -28 -6 0 13 168 25 218
9 36 22 25 29 -24z m456 31 c0 -27 -212 -363 -303 -481 -18 -22 -47 -63 -66
-90 l-34 -49 -13 30 c-7 17 -16 39 -19 50 -14 39 -18 -6 -6 -61 l12 -53 -137
-181 c-126 -168 -137 -180 -153 -166 -20 18 -67 21 -105 7 -19 -8 -32 -5 -58
12 -18 13 -34 30 -36 39 -5 24 99 140 336 376 195 193 215 211 227 195 11 -15
16 -16 27 -5 10 10 10 18 -3 40 -14 26 -13 30 64 152 43 69 86 133 95 142 24
25 172 62 172 43z m-552 -190 l-12 -97 -81 -73 c-99 -91 -135 -119 -135 -107
0 5 16 24 36 43 19 19 41 46 49 60 8 15 31 48 51 74 33 43 35 51 29 92 -6 42
-4 46 30 79 21 19 39 33 41 31 3 -2 -1 -48 -8 -102z m-88 -31 c0 -7 -15 -30
-34 -50 -19 -21 -42 -55 -52 -76 -9 -21 -23 -38 -31 -38 -7 0 -13 -6 -13 -12
-1 -7 -22 -29 -47 -48 -26 -19 -67 -53 -92 -76 -61 -54 -273 -195 -336 -223
-107 -47 -271 -70 -585 -81 -307 -11 -435 -23 -600 -56 -294 -61 -350 -81
-536 -196 -211 -130 -431 -329 -529 -477 -88 -135 -173 -362 -262 -703 -11
-42 -19 -55 -30 -51 -7 3 -13 11 -11 17 2 6 24 76 50 156 26 80 55 174 65 210
19 72 144 350 188 420 31 50 263 283 340 341 28 20 95 63 150 94 55 32 107 64
115 71 35 30 222 104 301 119 46 8 100 20 119 25 57 15 527 58 715 65 225 8
346 22 425 47 230 74 492 276 610 470 42 70 56 86 67 77 7 -6 13 -17 13 -25z
m-491 -531 c-10 -28 -35 -142 -65 -298 l-16 -81 -51 -24 c-39 -19 -57 -35 -70
-63 -18 -36 -18 -39 -2 -64 16 -24 21 -25 71 -20 30 3 52 2 49 -2 -10 -17 15
-183 48 -321 38 -156 96 -306 208 -537 72 -147 121 -213 158 -213 12 0 77 18
144 39 67 22 170 51 229 66 136 33 214 60 364 128 320 145 492 300 614 552 32
66 63 143 70 170 19 80 15 203 -9 265 -11 30 -19 55 -18 56 1 1 14 5 29 9 25
6 27 4 38 -47 42 -195 50 -369 25 -528 -20 -125 -72 -232 -155 -321 -49 -52
-56 -57 -40 -28 22 39 100 228 100 243 0 26 -39 -31 -82 -120 -132 -268 -306
-422 -790 -702 -59 -34 -126 -71 -150 -81 -41 -17 -81 -51 -61 -51 26 0 210
83 341 154 45 24 82 43 82 40 0 -6 -161 -175 -297 -311 -163 -163 -242 -220
-378 -276 -131 -53 -197 -70 -370 -96 -99 -15 -159 -31 -245 -65 -63 -24 -151
-50 -195 -57 -99 -15 -121 -25 -81 -35 45 -11 211 21 315 61 59 22 134 41 200
51 215 31 435 103 545 179 38 26 96 59 130 73 34 15 95 47 137 73 71 43 77 45
87 28 16 -25 15 -39 -4 -96 -35 -104 -163 -266 -257 -328 -34 -22 -199 -54
-282 -55 -33 0 -89 -5 -125 -10 -36 -6 -110 -14 -165 -20 -108 -10 -190 -34
-380 -115 -60 -25 -171 -65 -245 -87 -74 -22 -137 -42 -139 -44 -27 -25 179
10 295 50 38 13 117 44 177 69 59 26 131 54 160 62 72 22 229 45 307 44 l65
-1 -100 -24 c-253 -60 -381 -113 -581 -241 -60 -38 -138 -81 -174 -96 -36 -14
-94 -38 -129 -52 -35 -15 -106 -38 -158 -51 -105 -26 -136 -25 -278 11 -49 13
-107 26 -127 29 -48 9 -130 71 -299 229 l-138 128 -25 77 c-13 42 -37 120 -51
172 -15 52 -47 140 -71 196 -26 60 -48 129 -54 170 -13 89 -13 127 0 119 6 -3
10 -3 10 2 0 4 5 35 10 68 5 33 14 130 19 215 15 244 59 394 159 542 27 41 78
121 112 178 34 58 68 108 74 113 6 4 38 16 71 26 85 27 291 114 407 172 54 27
99 49 102 49 2 0 -3 -23 -11 -52 -28 -93 -3 -359 32 -346 6 2 9 60 7 153 -1
91 3 175 10 213 13 62 14 64 80 110 227 160 389 306 486 437 37 51 50 61 90
71 26 7 85 30 132 52 47 22 86 41 87 41 1 1 -2 -11 -8 -26z m809 -281 c37
-112 49 -162 39 -162 -1 0 -30 9 -62 21 -92 32 -175 71 -175 82 0 11 140 187
149 187 4 0 26 -58 49 -128z m-617 4 c-26 -11 -32 -6 -24 22 5 22 6 22 25 5
19 -17 19 -18 -1 -27z m1249 -11 c7 -8 16 -15 21 -15 4 0 20 -5 36 -11 28 -10
27 -11 -46 -45 -40 -19 -75 -34 -77 -34 -1 0 6 27 18 60 21 63 28 69 48 45z
m-1144 -142 c-20 -27 -63 -87 -96 -135 -34 -49 -63 -88 -66 -88 -2 0 -4 47 -4
104 l0 103 93 31 c50 16 96 30 100 31 5 1 -7 -20 -27 -46z m462 -23 c92 -34
173 -63 180 -65 8 -3 -5 -30 -42 -82 -89 -129 -116 -180 -116 -223 0 -22 5
-40 10 -40 21 0 89 50 111 82 38 54 161 198 169 198 4 0 23 -7 43 -15 29 -12
34 -18 30 -37 -6 -22 -5 -22 14 -5 14 12 37 17 80 17 109 0 177 38 230 128 14
23 29 42 33 42 15 0 23 -67 17 -138 -2 -37 -16 -103 -31 -147 -24 -76 -28 -81
-67 -98 -72 -31 -151 -48 -278 -58 -130 -10 -203 -32 -238 -72 -18 -20 -17
-20 2 -12 79 32 114 38 230 45 137 8 195 20 258 52 46 23 56 18 33 -18 -87
-131 -290 -255 -566 -344 -73 -23 -286 -102 -363 -134 -67 -28 -92 -34 -102
-26 -7 6 -29 50 -48 98 -20 48 -58 139 -87 202 -37 83 -49 122 -45 140 6 25
132 258 158 294 13 18 17 16 78 -34 35 -28 98 -74 140 -102 75 -48 86 -61 111
-123 11 -28 12 -29 16 -7 2 12 -2 38 -8 58 -12 36 -22 45 -204 179 -53 39 -96
75 -96 81 0 20 153 224 167 224 8 0 90 -27 181 -60z m695 17 c-16 -18 -39 -49
-51 -69 -12 -20 -38 -43 -56 -52 -32 -15 -126 -23 -126 -10 0 16 224 164 249
164 8 0 2 -13 -16 -33z m-235 -84 c-53 -53 -59 -56 -83 -45 -14 7 -23 17 -20
22 7 12 134 79 150 80 5 0 -16 -26 -47 -57z m1645 -123 c12 0 17 -8 17 -26 0
-25 -2 -26 -32 -19 -118 25 -176 12 -397 -86 -60 -27 -63 -16 -5 21 73 46 330
124 379 114 11 -2 28 -4 38 -4z m200 -22 c9 -5 17 -18 17 -29 0 -19 -4 -20
-54 -14 -102 13 -121 19 -124 42 -3 21 -1 22 70 16 40 -3 81 -10 91 -15z
m-703 -162 c0 -3 -17 -25 -38 -49 -21 -24 -57 -79 -79 -123 -44 -83 -161 -421
-213 -614 -34 -125 -46 -146 -168 -298 -90 -111 -135 -145 -283 -217 -92 -43
-130 -56 -194 -64 -44 -5 -84 -6 -88 -2 -4 4 21 11 58 14 36 4 92 17 124 30
86 35 297 173 357 235 90 91 199 336 249 557 24 108 83 282 120 355 34 65 155
203 155 176z m-5863 -303 c-24 -47 -29 -98 -13 -142 7 -23 10 -41 5 -41 -25 0
-125 42 -154 65 -42 32 -46 31 -73 -5 -23 -31 -82 -68 -82 -51 0 5 5 13 10 16
7 4 7 13 0 26 -11 19 0 79 17 105 5 6 62 18 127 28 66 9 122 19 125 21 2 3 15
5 28 5 22 0 23 -1 10 -27z m-158 -170 c2 -2 -10 -3 -29 -3 -28 0 -31 2 -20 15
10 12 16 13 29 3 9 -7 18 -14 20 -15z m5314 -45 c-21 -36 -108 -110 -172 -146
-61 -34 -49 -14 25 43 36 28 86 71 112 97 25 26 48 45 50 43 3 -2 -4 -19 -15
-37z m-5405 -25 c-14 -16 -37 -47 -52 -70 -29 -47 -33 -49 -70 -31 -22 9 -24
14 -13 26 10 14 9 14 -8 7 -11 -5 -51 -9 -88 -10 -86 -2 -107 -17 -83 -63 31
-60 18 -92 -37 -92 -32 0 -67 -39 -67 -74 0 -37 21 -98 37 -109 15 -9 18 -47
4 -47 -5 0 -11 8 -14 18 -3 14 -5 14 -9 2 -3 -8 -11 -31 -18 -50 -7 -19 -14
-48 -16 -65 -3 -28 -3 -28 8 5 l11 35 9 -32 c5 -18 7 -104 6 -190 l-3 -158
-38 57 c-150 227 -122 512 69 704 102 103 226 159 358 163 l40 1 -26 -27z
m210 -3 c129 -46 239 -140 301 -259 70 -134 85 -234 56 -357 -15 -66 -65 -186
-70 -169 -2 6 -10 34 -19 63 -16 50 -16 58 0 125 16 65 16 76 2 136 -8 36 -16
88 -17 116 -2 51 -30 126 -58 157 -18 20 -117 68 -142 68 -9 0 -25 7 -35 15
-11 8 -36 15 -56 15 -34 0 -38 3 -60 53 -13 28 -26 56 -28 61 -6 12 59 -1 126
-24z m-118 -36 c27 -63 27 -83 -1 -58 -16 14 -34 19 -75 17 -53 -2 -54 -1 -43
20 20 39 52 67 76 67 19 0 28 -10 43 -46z m-317 -61 c7 -7 -41 -63 -53 -63 -4
0 -12 11 -18 25 -11 23 -9 27 11 35 27 11 51 12 60 3z m282 -3 c3 -6 -4 -10
-18 -10 -14 0 -40 -3 -58 -6 -19 -4 -31 -3 -27 1 6 7 40 16 90 24 4 0 10 -3
13 -9z m-232 -6 c3 -4 -9 -27 -28 -52 -19 -25 -35 -49 -35 -54 0 -5 -4 -6 -10
-3 -18 11 -10 40 21 78 30 37 40 43 52 31z m42 -12 c7 -4 -6 -24 -32 -49 -24
-24 -43 -41 -43 -39 0 6 33 71 43 84 11 14 18 15 32 4z m191 -31 c-15 -16 -22
-18 -42 -9 -32 15 -21 28 23 28 35 0 36 -1 19 -19z m122 3 c-9 -9 -21 -13 -27
-10 -20 13 -11 26 16 26 25 0 26 -1 11 -16z m322 0 c0 -2 -7 -4 -15 -4 -8 0
-15 4 -15 10 0 5 7 7 15 4 8 -4 15 -8 15 -10z m-516 -21 c27 -14 28 -17 13
-28 -10 -7 -36 -15 -59 -19 -22 -4 -53 -16 -68 -26 -32 -22 -70 -26 -70 -7 1
14 50 70 75 84 27 15 75 13 109 -4z m296 1 c0 -8 -4 -12 -10 -9 -5 3 -10 10
-10 16 0 5 5 9 10 9 6 0 10 -7 10 -16z m80 -26 c26 -21 50 -61 50 -82 0 -17
-3 -16 -26 8 -15 14 -33 26 -40 26 -16 0 -34 31 -34 60 0 22 13 19 50 -12z
m220 28 c0 -3 -4 -8 -10 -11 -5 -3 -10 -1 -10 4 0 6 5 11 10 11 6 0 10 -2 10
-4z m-346 -22 c9 -3 16 -13 16 -21 0 -12 -8 -13 -42 -8 -51 9 -60 13 -53 26 7
10 55 12 79 3z m316 -24 c-12 -22 -30 -18 -30 6 0 8 9 14 20 14 18 0 19 -3 10
-20z m541 -85 c-13 -81 -29 -114 -51 -100 -24 15 0 149 33 178 11 10 22 15 25
12 3 -3 0 -43 -7 -90z m-1016 66 c-7 -12 -116 -63 -122 -57 -2 2 12 17 32 35
23 20 46 31 66 31 17 0 28 -4 24 -9z m-416 -83 c-11 -35 -21 -67 -23 -73 -1
-5 -13 12 -25 38 -20 45 -21 51 -7 72 14 21 50 36 67 28 4 -2 -2 -31 -12 -65z
m575 66 c22 -8 21 -54 -1 -54 -17 0 -63 37 -63 52 0 9 41 11 64 2z m-494 -8
c0 -3 -4 -8 -10 -11 -5 -3 -10 -1 -10 4 0 6 5 11 10 11 6 0 10 -2 10 -4z m205
-6 c-3 -5 -11 -10 -16 -10 -6 0 -7 5 -4 10 3 6 11 10 16 10 6 0 7 -4 4 -10z
m185 -35 c0 -24 -5 -35 -15 -35 -16 0 -18 12 -9 48 10 34 24 26 24 -13z m233
17 c22 -24 7 -52 -17 -33 -17 14 -22 51 -8 51 5 0 16 -8 25 -18z m-667 -34
c-19 -26 -22 -7 -4 25 7 13 13 17 15 10 3 -7 -3 -23 -11 -35z m394 12 c0 -25
-5 -31 -32 -38 -18 -5 -35 -8 -37 -6 -5 5 51 74 60 74 5 0 9 -13 9 -30z m-285
-71 l-17 -33 -18 34 c-14 27 -15 39 -7 58 l11 23 24 -24 c23 -24 24 -25 7 -58z
m205 61 c-11 -20 -40 -28 -40 -12 0 7 32 27 48 31 1 1 -2 -8 -8 -19z m175 10
c3 -5 -1 -10 -9 -10 -9 0 -16 5 -16 10 0 6 4 10 9 10 6 0 13 -4 16 -10z m-331
-6 c17 -6 23 -44 7 -44 -5 0 -16 11 -25 25 -16 25 -11 30 18 19z m584 -46 c-2
-18 -5 -19 -14 -7 -8 10 -9 21 -1 39 8 20 11 22 14 8 3 -10 3 -28 1 -40z
m-509 -19 c-33 -8 -46 1 -24 17 15 11 21 11 33 2 12 -11 11 -14 -9 -19z m306
22 c5 -9 -49 -158 -63 -173 -4 -4 -7 31 -6 78 0 62 4 88 15 95 18 11 46 11 54
0z m115 -9 c0 -5 -7 -17 -16 -28 -14 -17 -15 -17 -10 -1 3 10 6 23 6 28 0 5 5
9 10 9 6 0 10 -4 10 -8z m-213 -8 c-3 -3 -12 -4 -19 -1 -8 3 -5 6 6 6 11 1 17
-2 13 -5z m1730 -56 c-2 -13 -4 -5 -4 17 -1 22 1 32 4 23 2 -10 2 -28 0 -40z
m-1436 21 c8 -16 7 -36 -7 -85 -9 -35 -20 -64 -25 -64 -16 0 -15 27 3 66 12
27 16 53 12 73 -7 36 0 40 17 10z m-695 -16 c-10 -10 -19 5 -10 18 6 11 8 11
12 0 2 -7 1 -15 -2 -18z m394 12 c9 -10 9 -26 3 -52 l-9 -38 -32 44 c-18 24
-32 48 -32 53 0 14 57 9 70 -7z m135 -17 c-4 -18 -21 -54 -37 -80 -33 -53 -46
-64 -25 -20 8 15 22 51 31 80 19 57 42 72 31 20z m-335 13 c0 -5 -7 -14 -15
-21 -12 -10 -15 -10 -15 2 0 8 3 18 7 21 9 10 23 9 23 -2z m50 0 c0 -5 7 -17
16 -25 14 -15 13 -16 -14 -16 -36 0 -48 -13 -56 -65 -8 -46 -30 -80 -45 -70
-18 11 -13 26 36 107 43 71 63 93 63 69z m4874 -38 c-57 -104 -211 -269 -296
-317 -28 -16 -25 -11 24 40 31 32 92 99 135 149 43 49 93 106 110 125 18 19
33 38 33 43 0 4 5 7 10 7 6 0 -1 -21 -16 -47z m-4962 15 c4 -26 -22 -108 -34
-108 -4 0 -8 2 -8 4 0 2 -7 19 -15 39 -13 33 -13 37 6 61 25 32 46 33 51 4z
m498 -5 c0 -38 -16 -61 -30 -47 -9 9 -8 20 4 43 20 38 26 39 26 4z m-660 -7
c0 -3 -4 -8 -10 -11 -5 -3 -10 -1 -10 4 0 6 5 11 10 11 6 0 10 -2 10 -4z m50
-50 c0 -6 -5 -18 -10 -26 -7 -12 -13 -11 -34 10 -32 29 -32 34 -3 47 17 9 25
8 35 -5 6 -9 12 -21 12 -26z m521 1 c-13 -12 -20 -15 -16 -7 14 26 28 41 33
35 3 -3 -5 -16 -17 -28z m154 -104 c-3 -13 -9 -23 -15 -23 -19 0 -20 42 -3 97
l18 58 3 -54 c2 -30 1 -65 -3 -78z m-838 70 c-3 -10 -5 -4 -5 12 0 17 2 24 5
18 2 -7 2 -21 0 -30z m508 -21 c-6 -7 -34 29 -34 43 0 6 9 -1 20 -14 11 -13
17 -26 14 -29z m222 31 c4 -11 -95 -93 -111 -93 -4 0 14 24 41 54 46 53 63 62
70 39z m-602 -33 c22 -22 56 -53 75 -69 29 -25 33 -33 24 -48 -14 -23 -104
-85 -118 -80 -22 7 -58 129 -52 175 10 75 15 77 71 22z m64 -7 c13 -28 13 -28
-8 -9 -22 20 -27 36 -13 36 5 0 14 -12 21 -27z m301 -35 c0 -12 -14 -9 -35 6
-12 9 -16 19 -11 32 7 18 8 17 26 -6 11 -14 20 -28 20 -32z m280 8 c0 -13 -78
-143 -91 -151 -15 -10 -38 13 -55 54 -14 34 -14 37 6 51 11 8 42 32 68 52 42
33 48 35 60 21 6 -9 12 -21 12 -27z m-302 -47 c4 -20 -23 -54 -36 -45 -7 4 -7
15 1 36 12 31 30 35 35 9z m335 -35 c-5 -13 -63 -54 -77 -54 -3 0 8 23 26 51
28 46 33 50 44 34 7 -9 10 -23 7 -31z m-744 -49 c0 -5 -6 1 -14 15 -8 14 -14
30 -14 35 0 6 6 -1 14 -15 8 -14 14 -29 14 -35z m341 33 c25 -27 25 -35 0 -43
-28 -9 -40 2 -40 36 0 35 12 37 40 7z m210 -44 c13 -33 13 -34 -9 -34 -11 0
-21 9 -24 23 -2 12 -8 30 -12 41 -7 16 -6 17 14 7 12 -7 26 -23 31 -37z m228
-3 c7 -21 12 -43 12 -50 0 -15 -75 -13 -119 3 l-33 12 58 36 c33 20 62 36 65
37 3 1 11 -16 17 -38z m-286 -16 c3 -21 -19 -30 -40 -17 -10 7 -10 15 -2 37 9
24 13 26 25 14 7 -8 15 -23 17 -34z m-513 -1 c12 -28 7 -44 -15 -44 -9 0 -14
11 -14 35 0 41 12 45 29 9z m151 12 c0 -27 -36 -60 -56 -52 -17 7 -16 10 16
36 41 34 40 34 40 16z m84 -23 c-8 -33 -28 -57 -43 -52 -7 3 0 19 16 42 31 44
35 46 27 10z m4976 -15 c69 -17 132 -35 140 -40 23 -14 -100 0 -183 22 -39 10
-85 20 -102 22 -19 2 -31 9 -33 21 -4 20 -18 22 178 -25z m-4935 1 c-10 -15
-25 -10 -19 6 4 8 10 12 15 9 5 -3 7 -10 4 -15z m-109 -21 c-11 -15 -16 -18
-16 -7 0 16 21 42 28 34 2 -2 -3 -14 -12 -27z m414 3 c0 -12 -20 -25 -27 -18
-7 7 6 27 18 27 5 0 9 -4 9 -9z m89 -61 c18 -60 2 -84 -51 -77 -22 3 -42 8
-45 11 -4 3 2 25 12 48 9 24 21 54 26 67 9 22 11 22 28 7 10 -9 23 -34 30 -56z
m-141 33 c-4 -38 -24 -39 -43 -4 l-16 31 31 0 c28 0 31 -3 28 -27z m243 12
l57 0 -20 -40 c-27 -52 -111 -133 -174 -167 -107 -58 -299 -83 -411 -55 -82
22 -167 65 -223 115 l-45 40 27 11 c15 5 46 22 68 36 23 15 45 24 48 20 4 -4
11 -25 17 -48 10 -41 11 -42 50 -40 64 4 121 -23 148 -70 28 -51 41 -55 69
-24 13 14 41 30 63 36 23 6 55 22 74 35 27 20 37 23 61 14 80 -28 135 17 111
91 -7 20 -15 42 -18 50 -4 10 0 11 18 5 13 -5 49 -9 80 -9z m-712 -9 c10 -12
4 -19 -32 -40 -58 -34 -67 -33 -67 8 0 30 4 35 28 39 52 8 60 7 71 -7z m218
-3 c-9 -9 -19 -14 -23 -11 -10 10 6 28 24 28 15 0 15 -1 -1 -17z m187 -8 c3
-8 1 -15 -4 -15 -6 0 -10 7 -10 15 0 8 2 15 4 15 2 0 6 -7 10 -15z m-250 -25
c-5 -4 -20 -11 -32 -15 -20 -6 -23 -4 -20 11 2 10 14 21 28 24 25 6 39 -5 24
-20z m171 10 c10 -11 16 -20 13 -20 -3 0 -13 9 -23 20 -10 11 -16 20 -13 20 3
0 13 -9 23 -20z m-11 -29 c25 -26 28 -35 22 -66 -7 -34 -9 -36 -34 -30 -40 10
-52 24 -52 60 0 71 20 82 64 36z m-86 -32 c1 -29 -2 -39 -11 -35 -6 3 -20 9
-29 12 -25 9 -22 19 10 43 15 11 27 21 28 21 0 0 1 -18 2 -41z m186 16 c20
-31 10 -33 -15 -3 -21 24 -23 28 -10 28 5 0 16 -11 25 -25z m56 9 c0 -8 -5
-12 -10 -9 -6 4 -8 11 -5 16 9 14 15 11 15 -7z m-368 -29 c0 -5 -5 -11 -11
-13 -6 -2 -11 4 -11 13 0 9 5 15 11 13 6 -2 11 -8 11 -13z m307 -29 c24 -13
24 -14 3 -25 -32 -17 -65 -14 -58 5 3 9 6 20 6 25 0 13 21 11 49 -5z m-110
-55 c8 -5 11 -16 7 -26 -5 -14 -9 -15 -21 -5 -16 13 -21 40 -7 40 4 0 13 -4
21 -9z m1749 -68 c-2 -13 -17 -20 -53 -24 -28 -4 -75 -16 -105 -28 -69 -26
-74 -26 -30 1 74 45 126 67 158 68 27 0 33 -4 30 -17z m-4 -85 c3 -18 5 -64 4
-103 -2 -38 -2 -136 0 -217 2 -122 0 -152 -13 -172 -26 -39 -30 -124 -10 -211
14 -63 15 -88 6 -139 -6 -35 -11 -81 -11 -103 0 -101 -4 -105 -129 -143 -90
-27 -130 -23 -282 26 -130 42 -155 66 -189 175 -19 62 -21 88 -16 159 6 93 42
244 71 300 24 48 176 202 252 257 72 51 248 143 275 143 10 0 18 5 18 11 0 8
-14 9 -42 5 -104 -17 -242 -104 -371 -233 -109 -111 -127 -134 -163 -212 -45
-100 -58 -167 -57 -298 2 -217 31 -266 192 -328 129 -50 188 -58 276 -40 122
25 180 51 316 143 183 122 202 132 379 197 85 31 171 63 191 72 37 15 111 10
92 -7 -4 -4 -55 -20 -113 -35 -220 -57 -281 -86 -600 -287 -87 -55 -182 -94
-262 -109 -95 -17 -188 0 -304 56 -155 75 -194 141 -194 330 0 183 49 316 171
468 107 134 254 241 401 293 51 18 96 33 99 33 4 1 10 -14 13 -31z m-254 -12
c0 -2 -29 -25 -64 -50 -35 -25 -105 -87 -156 -138 -73 -73 -86 -83 -62 -48 43
64 118 134 203 190 81 53 79 52 79 46z m4630 -343 c55 -34 61 -41 58 -73 -1
-14 2 -36 6 -49 5 -14 4 -27 -3 -34 -17 -17 -59 11 -71 48 l-11 32 -91 7 c-50
3 -114 6 -141 6 l-50 0 42 28 c40 27 121 131 121 156 0 6 22 -12 48 -41 26
-28 67 -64 92 -80z m-5043 -119 c-6 -20 -13 -32 -14 -27 -4 11 14 63 21 63 2
0 -1 -16 -7 -36z m4757 20 l46 -7 0 -42 c0 -34 -5 -46 -24 -58 -23 -16 -24
-15 -40 38 -19 59 -26 65 -73 58 -35 -6 -43 -20 -18 -29 8 -4 15 -12 15 -20 0
-8 -7 -15 -15 -15 -8 -1 -20 -2 -27 -3 -12 -1 -30 62 -22 76 6 10 94 10 158 2z
m210 -35 c10 -17 14 -34 10 -39 -14 -12 -64 -21 -64 -12 0 5 -11 26 -25 46
l-24 36 42 0 c37 0 45 -4 61 -31z m-255 -59 c1 -13 0 -13 -9 0 -5 8 -9 26 -9
40 l1 25 8 -25 c4 -14 8 -32 9 -40z m-4732 8 c-3 -8 -6 -5 -6 6 -1 11 2 17 5
13 3 -3 4 -12 1 -19z m5163 -6 c0 -10 -14 -29 -32 -42 -30 -22 -32 -22 -45 -4
-21 29 -11 48 27 55 19 4 38 7 43 8 4 0 7 -7 7 -17z m-457 -50 c-5 -22 -27
-30 -38 -13 -5 9 35 45 42 38 1 -2 0 -13 -4 -25z m277 20 c0 -13 -30 -52 -41
-52 -10 0 -13 43 -2 53 9 10 43 9 43 -1z m-135 -21 c3 -5 0 -13 -6 -16 -5 -4
-8 -13 -5 -21 6 -16 4 -17 -18 -8 -16 6 -22 35 -9 47 9 10 31 9 38 -2z m155
-36 c-7 -8 -20 -15 -29 -15 -12 0 -10 5 9 20 28 21 39 18 20 -5z m-2868 -95
c24 1 68 9 98 20 39 13 57 15 62 7 11 -18 1 -25 -53 -36 -100 -22 -259 -9
-259 20 0 22 36 26 72 8 20 -10 57 -19 80 -19z m-562 -9 c23 -7 23 -8 5 -14
-11 -3 -38 -9 -60 -13 -147 -24 -449 -153 -640 -274 -195 -122 -254 -147 -369
-155 l-71 -5 99 25 c124 32 195 65 337 161 152 103 284 164 459 215 80 23 154
48 165 55 21 15 36 16 75 5z m-1348 -411 c59 -28 61 -30 23 -24 -43 7 -105 39
-154 80 -50 42 -36 49 18 10 27 -20 78 -50 113 -66z m1766 -806 c9 -5 -20 -52
-35 -56 -33 -9 -43 2 -43 48 l0 44 38 -17 c20 -10 38 -18 40 -19z m-18 -104
c0 -5 -4 -10 -10 -10 -5 0 -10 5 -10 10 0 6 5 10 10 10 6 0 10 -4 10 -10z
m-453 -702 c-3 -8 -6 -5 -6 6 -1 11 2 17 5 13 3 -3 4 -12 1 -19z m-45 -85 c12
-11 18 -30 18 -60 0 -25 -3 -43 -8 -41 -14 6 -101 73 -102 78 0 7 52 39 64 40
5 0 18 -7 28 -17z m-204 -50 c-3 -5 -15 -32 -28 -60 -13 -29 -27 -53 -31 -53
-3 0 -9 13 -12 30 -9 40 20 90 51 90 13 0 22 -3 20 -7z m164 -147 c32 -28 56
-51 55 -53 -2 -1 -31 9 -66 23 l-63 26 -34 -33 c-19 -19 -46 -56 -59 -84 -14
-29 -24 -42 -25 -30 0 10 23 65 52 122 45 88 54 101 67 90 9 -6 42 -34 73 -61z
m6 -131 c8 -8 -3 -15 -57 -35 -57 -22 -66 -13 -29 28 18 18 30 22 52 18 16 -4
32 -8 34 -11z m152 -359 c0 -45 -18 -56 -42 -25 -20 23 -20 24 2 41 32 26 40
22 40 -16z m-80 -25 c0 -5 3 -18 6 -28 5 -16 4 -16 -10 1 -18 23 -20 36 -6 36
6 0 10 -4 10 -9z m-40 -22 c0 -11 -4 -17 -10 -14 -5 3 -10 13 -10 21 0 8 5 14
10 14 6 0 10 -9 10 -21z m-50 -9 c0 -13 -5 -18 -15 -14 -8 4 -15 12 -15 20 0
8 7 14 15 14 8 0 15 -9 15 -20z"/>
<path d="M7196 8494 c-21 -20 -20 -23 7 -34 l22 -9 -23 0 c-26 -1 -25 -18 1
-35 40 -26 80 53 41 81 -23 17 -29 16 -48 -3z"/>
<path d="M7830 8391 c-55 -18 -91 -43 -149 -108 -79 -87 -85 -108 -40 -145 33
-28 69 -31 92 -9 12 12 -3 81 -23 100 -15 15 -15 18 13 54 34 43 52 49 31 10
-17 -34 -18 -54 -2 -105 18 -60 58 -98 103 -98 42 0 90 22 99 45 21 55 -15
115 -70 115 -29 0 -34 -3 -34 -24 0 -27 18 -37 50 -29 17 4 21 2 18 -8 -7 -20
-53 -23 -72 -4 -19 19 -21 56 -4 73 7 7 31 12 54 12 53 0 84 -33 84 -89 0 -92
-103 -137 -219 -96 -22 8 -41 10 -41 6 0 -15 112 -54 155 -54 50 0 106 31 123
68 15 32 16 109 1 138 -10 22 -10 22 10 0 22 -26 33 -30 25 -8 -4 9 0 15 10
15 9 0 16 -5 16 -10 0 -7 6 -7 20 0 30 16 25 40 -8 40 -22 0 -34 9 -53 37 -13
20 -36 45 -50 56 -30 21 -100 31 -139 18z m126 -46 c13 -8 24 -20 24 -26 0 -7
-6 -6 -16 2 -9 8 -37 22 -63 32 l-46 17 39 -4 c21 -3 49 -12 62 -21z m-22 -36
c8 -9 5 -10 -15 -6 -35 9 -97 -10 -109 -33 -16 -30 -12 -65 11 -95 19 -23 28
-26 65 -23 49 4 58 -7 18 -22 -62 -24 -102 1 -124 76 -15 49 0 91 40 112 28
15 97 10 114 -9z m-224 -135 c0 -17 -22 -14 -28 4 -2 7 3 12 12 12 9 0 16 -7
16 -16z"/>
<path d="M7183 8303 c-7 -2 -13 -14 -13 -25 0 -14 5 -18 15 -15 20 8 29 -10
10 -21 -15 -8 -15 -10 -1 -21 23 -19 46 3 46 44 0 38 -22 53 -57 38z"/>
<path d="M6064 7905 c-18 -13 -16 -14 20 -15 l39 0 -34 -23 c-36 -24 -75 -89
-64 -107 4 -6 23 8 47 35 44 50 76 71 88 58 5 -4 12 -25 15 -45 l7 -38 -40 0
c-64 0 -123 -61 -122 -127 l1 -28 17 23 c54 74 75 92 104 92 20 0 29 -4 25
-12 -5 -16 -22 -70 -38 -126 -9 -32 -9 -48 -1 -68 l12 -25 -47 3 -48 3 -5 45
c-6 52 -21 40 -23 -17 -1 -42 30 -73 74 -73 20 0 34 -8 45 -26 21 -31 58 -29
62 4 2 13 -8 45 -22 73 -24 46 -25 51 -12 83 8 18 19 37 25 40 17 11 13 29 -4
22 -12 -4 -11 3 5 34 14 27 20 59 20 101 0 56 -3 64 -34 95 -37 37 -78 45
-112 19z"/>
<path d="M7872 7475 c-67 -29 -127 -88 -72 -70 19 6 19 5 -2 -34 l-21 -40 23
-33 c32 -46 105 -103 157 -123 43 -17 46 -17 71 2 15 11 44 44 65 75 l39 55
-34 68 c-28 57 -41 73 -77 92 -50 26 -101 29 -149 8z m135 -47 c18 -13 43 -43
57 -68 l24 -45 -36 -66 c-21 -36 -41 -67 -45 -69 -5 -1 -31 12 -58 30 l-50 32
36 32 c25 22 38 42 42 69 5 34 2 42 -28 73 l-33 34 29 0 c16 0 44 -10 62 -22z
m-81 -113 c-19 -29 -52 -41 -71 -25 -22 18 -18 28 8 23 15 -3 30 4 47 22 28
30 40 16 16 -20z"/>
<path d="M7463 7298 c-33 -16 -29 -38 7 -38 18 0 33 -6 36 -15 9 -21 21 -19
27 7 13 47 -22 69 -70 46z"/>
<path d="M7643 7206 c-21 -19 -34 -38 -30 -42 11 -11 56 15 74 43 24 37 -4 36
-44 -1z"/>
<path d="M7013 7051 c-78 -63 -172 -167 -194 -215 -31 -70 -9 -97 116 -146
140 -54 359 -98 508 -103 57 -2 69 1 93 23 46 43 81 107 105 196 20 72 28 88
49 96 24 10 24 11 -25 32 -27 13 -88 33 -135 45 -47 13 -154 43 -238 67 -193
55 -215 56 -279 5z m183 -11 c55 -17 162 -47 239 -67 159 -41 205 -58 205 -76
0 -6 -8 -34 -17 -60 -15 -41 -21 -47 -38 -42 -74 22 -192 50 -335 79 -157 32
-280 73 -280 95 0 12 78 80 105 91 11 5 21 9 21 9 1 1 46 -13 100 -29z m-152
-151 c32 -10 93 -25 135 -33 42 -8 139 -29 215 -45 77 -17 150 -31 162 -31 33
0 37 -15 15 -58 -25 -48 -102 -102 -146 -102 -45 0 -233 35 -350 65 -120 31
-203 62 -229 85 -21 21 -14 39 41 108 39 48 41 48 157 11z"/>
<path d="M7047 7803 c-4 -3 -7 -15 -7 -25 0 -29 44 -20 48 10 3 16 -2 22 -16
22 -10 0 -22 -3 -25 -7z"/>
<path d="M4117 5323 c-20 -20 14 -265 55 -387 16 -50 36 -119 44 -155 24 -103
88 -252 180 -421 91 -166 111 -197 120 -188 5 6 -5 30 -128 288 -76 159 -99
219 -137 360 -16 58 -38 137 -50 175 -27 89 -61 257 -61 301 0 32 -9 42 -23
27z"/>
<path d="M4660 5184 c0 -30 34 -138 79 -254 97 -247 125 -312 189 -438 52
-103 72 -134 90 -139 48 -12 508 16 609 37 29 6 53 16 53 22 0 6 -11 8 -27 5
-45 -10 -599 -31 -616 -24 -18 7 -115 193 -149 285 -11 31 -24 62 -28 67 -5 6
-22 44 -38 85 -16 41 -48 113 -69 160 -22 47 -48 110 -58 140 -19 61 -35 85
-35 54z"/>
<path d="M6335 4294 c-8 -9 -23 -30 -31 -47 -31 -60 -108 -162 -178 -234 -71
-75 -80 -101 -23 -70 100 55 225 218 262 345 7 26 -7 29 -30 6z"/>
<path d="M6089 4152 c-79 -69 -169 -124 -358 -216 -138 -67 -179 -92 -161 -94
62 -7 342 117 459 203 52 38 131 122 131 139 0 16 -31 2 -71 -32z"/>
<path d="M3950 3883 c0 -23 75 -129 129 -184 73 -73 148 -114 271 -149 119
-33 314 -40 295 -10 -3 5 -19 7 -34 4 -33 -7 -293 54 -363 85 -79 36 -210 150
-255 223 -16 25 -43 45 -43 31z"/>
</g>
</svg>
