<?xml version="1.0" standalone="no"?>
<!DOCTYPE svg PUBLIC "-//W3C//DTD SVG 20010904//EN"
 "http://www.w3.org/TR/2001/REC-SVG-20010904/DTD/svg10.dtd">
<svg version="1.0" xmlns="http://www.w3.org/2000/svg"
 width="820.000000pt" height="1095.000000pt" viewBox="0 0 820.000000 1095.000000"
 preserveAspectRatio="xMidYMid meet">

<g transform="translate(0.000000,1095.000000) scale(0.100000,-0.100000)"
fill="#000000" stroke="none">
<path d="M4670 10390 c-237 -154 -227 -152 -230 -55 -1 28 -5 70 -8 95 l-7 45
-143 -193 c-78 -105 -147 -192 -153 -192 -7 0 -35 13 -63 29 -77 43 -304 161
-310 161 -8 0 63 -115 140 -229 35 -51 64 -97 64 -101 0 -5 -24 -16 -52 -26
-69 -22 -254 -102 -342 -146 l-70 -35 65 -6 c35 -4 115 -9 177 -13 62 -4 114
-10 117 -14 2 -3 -17 -24 -43 -45 -110 -91 -271 -239 -324 -299 l-57 -64 42 9
c23 6 89 25 147 44 124 40 190 52 190 35 0 -6 -19 -37 -43 -68 -56 -74 -102
-151 -171 -287 -31 -60 -62 -118 -68 -127 -13 -19 -34 -26 -23 -8 3 6 1 10 -4
10 -6 0 -11 -4 -11 -10 0 -5 -10 -10 -22 -10 -17 0 -19 3 -9 9 11 7 10 11 -5
19 -21 11 -64 6 -304 -35 -85 -15 -168 -26 -185 -25 -16 0 -68 -4 -115 -9 -47
-6 -125 -15 -175 -19 -158 -15 -227 -30 -259 -59 -38 -35 -42 -48 -61 -200
-18 -149 -13 -195 21 -217 21 -14 39 -12 218 27 193 42 196 42 217 23 12 -11
32 -18 47 -16 40 4 181 39 230 56 23 8 42 12 42 8 0 -4 -59 -50 -131 -102
-241 -174 -418 -338 -547 -505 -46 -61 -71 -84 -99 -94 -130 -47 -351 -259
-443 -426 -27 -48 -47 -69 -99 -103 -102 -67 -232 -198 -389 -392 -57 -72
-122 -135 -173 -171 -22 -15 -22 -18 -10 -59 15 -51 3 -85 -35 -94 -32 -8 -55
-56 -48 -95 7 -34 1 -41 -155 -179 -41 -37 -71 -72 -71 -83 0 -17 31 -95 80
-204 10 -22 23 -59 30 -82 6 -24 19 -47 31 -53 28 -16 153 9 268 54 51 20 106
36 123 36 32 0 78 20 97 44 16 19 1 43 -36 57 -23 9 -23 9 -6 41 10 20 18 60
19 103 3 59 6 70 23 77 28 10 54 65 47 99 -6 32 4 39 51 31 58 -8 91 14 128
87 39 77 117 158 194 199 55 31 78 59 125 159 13 28 48 78 78 111 118 132 209
240 245 291 32 46 57 65 163 127 69 40 136 73 149 74 13 0 42 15 65 33 23 19
48 36 57 39 9 4 27 26 40 50 22 38 38 50 147 106 l122 63 0 -91 c0 -86 -2 -95
-29 -129 -42 -53 -47 -68 -59 -156 -25 -182 -36 -516 -23 -702 6 -98 14 -194
17 -214 l6 -36 -84 -7 c-110 -10 -220 -31 -256 -50 -49 -25 -277 -315 -367
-466 -22 -36 -47 -76 -57 -89 -10 -13 -18 -40 -18 -60 0 -44 2 -40 -135 -254
-60 -95 -135 -218 -166 -275 l-56 -103 -13 31 c-20 48 -51 63 -115 58 -62 -5
-98 -31 -121 -85 -31 -73 1 -184 70 -239 20 -16 36 -34 36 -40 0 -6 -14 -30
-31 -54 -42 -58 -103 -186 -96 -203 4 -11 52 -16 209 -21 111 -4 206 -10 210
-14 15 -15 -199 -535 -323 -782 -88 -177 -118 -220 -234 -335 -33 -33 -71 -77
-83 -99 -27 -46 -52 -144 -52 -207 0 -33 -6 -51 -20 -64 -32 -29 -57 -74 -84
-155 l-25 -75 19 -68 c18 -65 92 -238 113 -264 23 -30 -16 -10 -60 30 -46 42
-46 42 -29 10 9 -18 36 -44 61 -58 28 -17 61 -50 88 -88 24 -35 64 -77 92 -96
l50 -33 -65 4 c-48 3 -83 13 -135 38 -38 19 -74 36 -80 39 -5 2 -2 -5 8 -17
23 -25 98 -58 166 -73 37 -8 64 -8 98 1 27 6 66 15 88 19 22 4 94 25 160 46
101 32 126 44 157 77 56 57 87 117 96 186 6 39 16 71 29 85 21 23 262 301 298
343 20 23 22 24 205 22 220 -2 360 17 595 83 187 52 325 112 485 214 286 180
490 395 673 710 29 50 59 90 66 90 14 0 50 -88 83 -205 14 -50 31 -86 52 -107
34 -37 70 -43 86 -14 13 26 362 289 400 303 17 5 30 16 30 23 0 7 9 24 20 38
12 16 20 40 20 66 0 44 36 298 45 324 4 8 14 18 23 22 18 7 285 35 290 30 2
-1 -6 -22 -17 -46 -11 -24 -22 -52 -25 -61 -3 -9 -27 -28 -53 -42 -91 -46 -98
-108 -27 -250 41 -82 94 -226 84 -226 -15 0 -87 59 -104 85 l-18 28 -14 -33
c-13 -31 -12 -39 11 -101 35 -91 100 -170 172 -208 38 -20 49 -12 13 10 -86
51 -146 129 -176 228 -22 73 -17 77 35 28 27 -26 62 -49 78 -53 15 -4 44 -20
63 -35 71 -55 206 -89 361 -91 128 -1 139 5 204 103 43 65 123 141 164 154 10
3 31 23 46 45 15 22 31 40 36 40 4 0 21 12 38 26 30 25 30 27 29 112 -2 70 2
96 19 132 20 43 157 212 208 255 59 51 201 283 235 385 27 79 37 216 21 290
-6 30 -30 97 -53 148 -49 111 -49 112 -248 160 -338 82 -330 81 -575 88 l-230
6 -63 67 c-34 36 -65 75 -67 86 -9 34 69 252 99 280 19 18 25 31 21 45 -3 11
1 30 10 44 11 16 14 35 10 58 -5 25 5 66 39 164 25 72 57 173 71 225 41 147
97 323 105 332 4 5 20 -9 36 -30 45 -62 155 -162 209 -189 28 -14 64 -38 80
-54 73 -66 257 -198 335 -239 47 -24 100 -57 118 -73 57 -49 103 -34 163 53
l17 24 43 -22 c75 -36 86 -37 112 -9 21 22 28 24 55 17 17 -5 46 -21 64 -34
18 -14 62 -38 98 -55 36 -16 96 -48 135 -71 59 -35 78 -41 126 -41 57 0 86 18
102 63 4 11 17 17 40 17 43 0 64 23 73 80 8 49 17 60 53 60 31 0 91 61 91 93
0 14 8 32 18 39 11 7 24 23 30 35 13 23 16 101 6 128 -8 20 -47 40 -127 65
-99 31 -120 25 -90 -28 22 -38 13 -48 -28 -33 -18 6 -44 11 -59 11 -38 0 -96
41 -92 66 6 29 29 50 71 62 55 17 93 58 89 96 -4 38 -29 44 -95 22 -26 -9 -70
-16 -98 -16 -39 0 -60 -6 -86 -24 -19 -14 -60 -39 -91 -57 -62 -34 -82 -57
-95 -110 -12 -46 -41 -49 -71 -9 -19 25 -29 30 -67 30 -63 0 -92 16 -99 55
-11 54 -70 95 -140 95 -51 0 -169 83 -237 166 -42 52 -72 77 -115 99 -69 35
-161 126 -301 298 l-96 118 16 67 c39 170 110 438 119 449 5 6 19 13 31 15 34
5 42 63 27 181 -13 97 -13 106 19 311 19 116 38 220 44 231 14 25 17 56 16
160 0 22 7 115 15 208 9 92 16 211 16 265 0 53 6 180 14 282 14 173 20 318 17
383 -1 19 -6 27 -19 27 -23 0 -46 -37 -34 -53 26 -32 19 -285 -19 -707 -32
-365 -36 -393 -54 -430 -7 -14 -10 -31 -8 -38 3 -7 0 -26 -6 -43 -7 -21 -7
-37 0 -53 9 -18 6 -44 -10 -112 -11 -49 -23 -114 -27 -145 -9 -78 -17 -89 -46
-63 -60 52 -90 58 -318 62 -150 3 -230 0 -267 -8 -47 -12 -58 -11 -111 9 -66
24 -76 25 -67 11 3 -5 -3 -10 -14 -10 -11 0 -22 4 -25 9 -3 5 -21 12 -40 15
-29 6 -33 10 -28 29 6 24 140 207 152 207 4 0 20 -10 35 -22 l27 -21 -16 31
c-22 42 -20 47 9 28 l26 -17 -22 43 c-12 24 -35 59 -50 79 -16 20 -29 40 -29
45 0 4 -8 17 -19 28 -31 35 -312 458 -307 464 3 2 74 -20 158 -51 84 -31 154
-54 156 -53 1 2 -48 59 -110 127 -192 211 -318 356 -318 367 0 6 57 65 127
131 82 78 121 121 110 121 -11 0 -98 -14 -195 -31 -214 -38 -411 -66 -417 -61
-2 2 34 78 81 168 47 90 82 164 77 163 -4 0 -105 -63 -223 -139z m-252 -1037
c-2 -51 -6 -95 -9 -98 -7 -6 -96 31 -103 43 -2 4 9 29 25 55 16 27 27 53 23
59 -4 6 -3 8 3 5 6 -4 21 10 34 31 29 47 33 33 27 -95z m321 53 c18 -74 16
-78 -52 -113 -35 -18 -66 -33 -69 -33 -4 0 16 45 45 99 28 55 54 98 58 96 3
-3 12 -25 18 -49z m-138 -49 c-10 -9 -11 -8 -5 6 3 10 9 15 12 12 3 -3 0 -11
-7 -18z m216 -33 c-3 -3 -12 -4 -20 -2 -11 2 -12 9 -5 28 l10 25 11 -23 c5
-12 8 -25 4 -28z m-462 -76 c7 -8 2 -9 -15 -4 -14 3 -31 6 -37 6 -7 0 -13 5
-13 11 0 13 50 3 65 -13z m472 -66 c-16 -18 -15 -18 14 -14 l31 5 -3 -156 c-2
-86 -5 -154 -7 -152 -2 2 -17 -21 -33 -52 -16 -30 -44 -74 -62 -97 -68 -86
-192 -186 -233 -186 -11 0 -48 17 -82 38 -131 80 -228 180 -293 305 l-34 66
30 88 c29 85 31 88 63 91 28 3 31 6 21 18 -11 14 -4 15 54 12 70 -3 75 -5 55
-27 -11 -11 -8 -12 16 -7 l29 7 -7 -63 c-4 -35 -10 -75 -13 -90 -9 -47 11 -31
40 32 31 64 51 80 36 28 -9 -34 -3 -52 10 -28 5 8 33 51 62 96 51 79 53 80 78
68 14 -7 49 -15 76 -19 50 -6 50 -6 26 12 l-25 18 75 11 c41 6 78 12 83 13 5
0 2 -7 -7 -17z m557 -52 c63 -41 99 -75 129 -123 19 -30 19 -30 -32 -100 l-33
-46 -30 22 c-23 17 -36 44 -68 145 -22 69 -40 128 -40 133 0 15 12 10 74 -31z
m-1647 -62 c-2 -7 -15 -46 -28 -85 -15 -48 -28 -73 -38 -74 -9 -1 -5 -5 9 -9
17 -5 4 -7 -41 -6 -112 4 -112 17 6 120 72 63 103 81 92 54z m1687 -240 c-5
-8 -10 -6 -15 8 -14 35 -10 50 7 26 8 -12 12 -27 8 -34z m747 -555 c86 -8 86
-7 55 -114 -14 -52 -35 -138 -46 -191 -20 -102 -43 -168 -58 -168 -4 0 -26 15
-48 34 -25 21 -54 36 -74 38 -33 3 -34 5 -62 93 -16 50 -50 133 -76 185 -26
52 -48 98 -50 102 -2 4 19 8 46 8 33 0 54 5 63 16 14 16 71 16 250 -3z m-693
-752 c83 -49 116 -73 236 -170 38 -31 96 -74 129 -96 52 -35 63 -48 84 -101
l24 -62 -24 -83 c-118 -399 -200 -658 -217 -681 -11 -15 -20 -37 -20 -50 0
-13 -7 -32 -15 -42 -8 -11 -15 -39 -15 -62 0 -48 -57 -214 -74 -214 -6 0 -75
69 -153 154 -105 114 -151 156 -173 161 -22 5 -30 12 -30 29 0 36 50 196 80
255 47 94 79 219 90 348 12 145 6 227 -26 365 -24 104 -25 108 -10 195 9 48
16 91 16 96 0 14 17 7 98 -42z m1627 -624 c17 -13 17 -16 -11 -67 -16 -29 -39
-60 -52 -68 -22 -14 -23 -14 -19 9 13 72 19 109 17 115 -2 8 21 24 36 24 5 0
18 -6 29 -13z m-5780 -397 c3 -6 -1 -7 -9 -4 -18 7 -21 14 -7 14 6 0 13 -4 16
-10z m250 -28 c-3 -3 -11 0 -18 7 -9 10 -8 11 6 5 10 -3 15 -9 12 -12z m372
-1474 c-3 -7 -5 -2 -5 12 0 14 2 19 5 13 2 -7 2 -19 0 -25z m-47 -63 c0 -10
-45 -75 -52 -75 -3 0 -11 14 -17 30 -11 32 -10 34 34 43 31 7 35 7 35 2z
m3220 -446 c0 -64 -43 -267 -63 -299 -38 -59 -46 -74 -61 -107 -8 -17 -25 -37
-37 -44 -13 -7 -46 -33 -74 -59 -60 -56 -183 -150 -199 -151 -28 -3 -82 3 -89
10 -7 7 -77 236 -77 253 0 4 26 8 58 8 86 0 115 22 135 101 9 35 21 113 28
172 7 62 17 111 23 113 11 4 222 19 314 23 37 1 42 -2 42 -20z m-1462 -219
c36 -48 102 -64 524 -125 l116 -17 -18 -44 c-48 -112 -224 -346 -353 -471 -52
-51 -137 -120 -189 -154 -157 -103 -422 -227 -596 -279 -93 -27 -302 -58 -455
-66 l-120 -7 74 87 c41 48 229 282 419 519 l345 432 110 77 c61 43 113 77 116
78 3 0 15 -13 27 -30z"/>
<path d="M4500 8899 c0 -10 36 -39 47 -39 6 0 18 11 26 23 15 24 15 24 -29 23
-24 -1 -44 -4 -44 -7z"/>
<path d="M4568 8813 c7 -3 16 -2 19 1 4 3 -2 6 -13 5 -11 0 -14 -3 -6 -6z"/>
<path d="M4667 8808 c26 -13 40 -57 21 -69 -7 -5 -8 -9 -3 -9 6 0 16 4 23 8
23 15 -16 83 -47 81 -11 0 -10 -3 6 -11z"/>
<path d="M4508 8803 c7 -3 16 -2 19 1 4 3 -2 6 -13 5 -11 0 -14 -3 -6 -6z"/>
<path d="M4428 8766 c-12 -27 -5 -56 12 -56 7 0 8 5 3 13 -10 16 -4 50 11 59
8 6 7 8 -2 8 -7 0 -17 -11 -24 -24z"/>
<path d="M4638 8723 c6 -2 18 -2 25 0 6 3 1 5 -13 5 -14 0 -19 -2 -12 -5z"/>
<path d="M4563 8713 c9 -2 23 -2 30 0 6 3 -1 5 -18 5 -16 0 -22 -2 -12 -5z"/>
<path d="M4585 8693 c-22 -3 -44 -9 -50 -15 -13 -13 87 -4 113 11 19 12 18 12
-63 4z"/>
<path d="M3687 4135 c-46 -16 -64 -30 -83 -66 -34 -67 -4 -161 73 -229 66 -58
153 -76 230 -48 42 15 42 28 1 28 -54 0 -110 20 -140 50 -37 37 -35 48 6 55
53 10 76 38 76 91 0 25 -6 57 -14 72 -25 48 -89 68 -149 47z"/>
<path d="M6415 10180 c10 -11 20 -20 23 -20 3 0 -3 9 -13 20 -10 11 -20 20
-23 20 -3 0 3 -9 13 -20z"/>
<path d="M6280 10076 c0 -2 7 -7 16 -10 8 -3 12 -2 9 4 -6 10 -25 14 -25 6z"/>
<path d="M6149 9953 c-85 -113 -115 -156 -67 -98 18 22 45 52 61 68 15 16 27
31 27 34 0 4 10 20 23 37 29 38 40 56 34 56 -3 0 -38 -44 -78 -97z"/>
<path d="M5913 9643 c-71 -93 -137 -181 -147 -198 -17 -29 -17 -30 1 -6 52 70
48 68 85 48 l33 -18 -29 24 -29 25 55 68 c29 38 70 92 91 120 54 75 61 80 94
60 l28 -17 -25 22 c-14 12 -24 26 -22 30 6 23 -15 -2 -135 -158z"/>
<path d="M5986 9607 c3 -10 9 -15 12 -12 3 3 0 11 -7 18 -10 9 -11 8 -5 -6z"/>
<path d="M5706 9371 c-3 -5 1 -11 9 -14 9 -4 12 -1 8 9 -6 16 -10 17 -17 5z"/>
<path d="M5640 9175 c13 -14 26 -25 28 -25 3 0 -5 11 -18 25 -13 14 -26 25
-28 25 -3 0 5 -11 18 -25z"/>
<path d="M2050 5689 c0 -32 -49 -129 -72 -143 -13 -8 -27 -5 -56 12 -22 12
-55 22 -75 22 -65 0 -124 -72 -112 -137 6 -34 7 -34 43 -28 24 4 51 0 75 -10
29 -12 42 -13 59 -4 18 10 20 17 15 70 l-5 59 28 0 c15 0 33 -7 41 -16 7 -8
25 -22 40 -30 28 -14 28 -14 38 23 15 54 13 154 -4 183 l-14 25 -1 -26z"/>
<path d="M1287 5459 c-48 -32 -107 -109 -107 -141 0 -17 6 -14 43 15 55 45 79
57 114 57 39 1 70 43 54 76 -15 33 -47 31 -104 -7z"/>
<path d="M5190 3733 c-28 -10 -68 -54 -86 -96 -10 -23 -28 -55 -41 -70 -13
-16 -23 -40 -23 -55 0 -16 -13 -40 -32 -61 -18 -19 -25 -29 -14 -21 39 30 42
23 34 -88 -4 -58 -11 -109 -16 -114 -5 -5 -27 -8 -48 -6 -37 3 -39 5 -48 45
-6 31 -5 49 8 75 l16 33 -36 -40 c-68 -78 -70 -112 -9 -249 49 -111 61 -156
101 -356 25 -131 66 -266 97 -326 23 -43 106 -121 149 -139 137 -56 323 42
369 195 14 46 6 63 -16 34 -15 -19 -15 -19 -30 0 -8 11 -15 36 -15 56 0 33
-45 118 -57 107 -3 -3 6 -19 18 -36 17 -23 25 -52 30 -107 4 -42 5 -82 2 -90
-8 -21 -31 -17 -44 7 -9 17 -13 19 -20 8 -4 -8 -4 -16 2 -20 16 -9 6 -53 -12
-57 -12 -2 -15 5 -14 28 1 16 -2 30 -6 30 -5 0 -20 20 -35 45 -26 45 -28 78
-8 143 5 18 9 20 21 10 29 -24 55 -90 50 -125 -4 -20 -2 -31 4 -28 19 12 8 76
-21 128 -16 30 -30 58 -30 64 0 6 20 36 45 66 40 49 45 61 45 104 0 58 -53
179 -58 133 -1 -14 -33 -84 -69 -157 l-67 -132 -28 33 c-15 18 -50 43 -78 55
l-50 22 0 67 c-1 37 -7 103 -15 147 -8 44 -15 85 -15 91 0 6 29 19 65 29 35 9
84 29 107 45 49 31 108 83 108 94 0 4 23 34 51 67 45 51 53 66 57 111 2 29 9
60 15 68 9 13 -28 -20 -104 -92 -41 -39 -138 -11 -197 57 -68 77 -82 132 -51
204 13 28 26 51 31 51 4 0 8 5 8 10 0 11 -16 12 -40 3z m-9 -510 c13 -16 12
-17 -3 -4 -10 7 -18 15 -18 17 0 8 8 3 21 -13z m98 -619 c15 -9 38 -32 51 -52
22 -31 25 -47 26 -129 2 -101 -5 -114 -52 -105 -25 4 -42 41 -29 61 3 6 3 17
-2 24 -4 6 -9 23 -11 37 -2 14 -16 41 -31 60 -27 34 -71 112 -71 126 0 12 90
-5 119 -22z m-31 -209 c-3 -3 -9 2 -12 12 -6 14 -5 15 5 6 7 -7 10 -15 7 -18z"/>
<path d="M5490 3569 c0 -5 9 -9 20 -9 11 0 20 2 20 4 0 2 -9 6 -20 9 -11 3
-20 1 -20 -4z"/>
<path d="M5585 3570 c4 -6 11 -8 16 -5 14 9 11 15 -7 15 -8 0 -12 -5 -9 -10z"/>
<path d="M4949 3393 c-13 -16 -12 -17 4 -4 16 13 21 21 13 21 -2 0 -10 -8 -17
-17z"/>
<path d="M5530 2705 c0 -2 11 -20 24 -40 14 -20 28 -56 32 -81 3 -24 11 -44
16 -44 20 0 -3 82 -34 126 -30 41 -38 50 -38 39z"/>
<path d="M1256 2571 c-3 -5 1 -11 9 -14 9 -4 12 -1 8 9 -6 16 -10 17 -17 5z"/>
<path d="M1155 2388 c-41 -86 -75 -159 -75 -162 0 -4 7 -1 15 8 8 8 15 19 15
25 0 6 30 70 66 142 36 72 63 133 60 136 -3 3 -39 -64 -81 -149z"/>
<path d="M1036 2135 c-3 -8 -1 -15 4 -15 6 0 10 7 10 15 0 8 -2 15 -4 15 -2 0
-6 -7 -10 -15z"/>
<path d="M1485 2070 c-11 -5 -45 -9 -75 -10 -46 -1 -52 -3 -33 -12 28 -14 128
-1 144 18 13 16 -3 18 -36 4z"/>
<path d="M1439 1973 c-18 -21 -71 -43 -106 -43 -15 0 -35 -5 -43 -11 -11 -8 0
-9 42 -5 70 7 78 11 106 47 24 30 25 42 1 12z"/>
<path d="M950 1951 c-6 -12 -7 -21 -1 -21 10 0 24 30 17 37 -2 3 -9 -5 -16
-16z"/>
<path d="M870 1864 c-40 -12 -50 -21 -90 -86 -24 -40 -55 -88 -67 -107 -13
-19 -23 -43 -23 -55 0 -28 -12 -46 -104 -167 -82 -106 -149 -213 -226 -362
-33 -64 -52 -89 -72 -96 -37 -13 -61 -54 -55 -93 3 -20 -2 -46 -13 -68 -54
-107 -63 -230 -20 -287 48 -66 244 -136 381 -137 67 -1 81 3 118 27 54 36 73
78 100 224 20 103 20 115 6 156 -19 55 -12 95 28 166 16 29 37 72 46 95 9 22
47 88 85 146 38 57 74 121 81 141 8 21 23 47 34 58 11 11 32 43 46 71 14 28
41 67 59 88 23 26 35 50 39 81 3 25 2 39 -2 32 -6 -10 -22 -11 -61 -6 -38 5
-51 4 -46 -4 4 -6 17 -11 29 -11 12 0 28 -4 35 -9 27 -17 -16 -32 -96 -33 -66
-1 -86 3 -115 21 -38 23 -97 91 -97 110 0 7 12 34 26 62 14 28 24 52 22 54 -2
1 -23 -3 -48 -11z m-145 -367 c66 -158 68 -403 6 -532 -26 -52 -38 -65 -93
-96 -96 -55 -99 -55 -137 -9 -17 22 -59 58 -92 80 l-59 41 37 67 c20 37 52 92
71 122 46 73 244 360 249 360 2 0 10 -15 18 -33z m-450 -647 c4 -6 -4 -23 -18
-39 -13 -16 -29 -51 -36 -77 -21 -80 -21 -80 -30 -66 -8 14 17 116 41 164 13
29 32 36 43 18z m64 -36 c2 -2 -8 -17 -22 -34 -15 -17 -31 -49 -37 -70 -6 -22
-15 -42 -20 -45 -6 -3 -10 -17 -10 -31 0 -13 -4 -24 -10 -24 -16 0 -28 34 -19
55 4 11 8 33 8 48 1 30 24 81 48 109 13 14 20 15 37 6 11 -6 23 -12 25 -14z
m291 2 c0 -3 -4 -8 -10 -11 -5 -3 -10 -1 -10 4 0 6 5 11 10 11 6 0 10 -2 10
-4z m-136 -100 c17 -22 21 -40 18 -94 -3 -84 -20 -112 -68 -112 -54 0 -74 15
-74 55 0 18 4 37 10 40 5 3 7 19 3 35 -3 20 0 39 12 56 9 14 14 28 12 31 -10
10 -37 -57 -37 -91 0 -25 -7 -40 -26 -55 -31 -25 -44 -26 -69 -7 -16 12 -17
17 -6 57 7 24 15 55 18 69 3 14 19 44 35 68 l30 43 61 -34 c33 -18 70 -46 81
-61z m276 -21 c0 -24 -21 -107 -36 -143 -36 -86 -197 -75 -168 11 4 12 7 32 5
44 -1 12 10 35 26 52 23 26 39 33 88 40 86 12 85 12 85 -4z"/>
<path d="M1327 1846 c-9 -7 -40 -16 -67 -20 -63 -8 -66 -22 -4 -18 l45 4 -36
-51 c-51 -71 -37 -64 22 12 68 86 76 100 40 73z"/>
</g>
</svg>
