<?xml version="1.0" standalone="no"?>
<!DOCTYPE svg PUBLIC "-//W3C//DTD SVG 20010904//EN"
 "http://www.w3.org/TR/2001/REC-SVG-20010904/DTD/svg10.dtd">
<svg version="1.0" xmlns="http://www.w3.org/2000/svg"
 width="880.000000pt" height="830.000000pt" viewBox="0 0 880.000000 830.000000"
 preserveAspectRatio="xMidYMid meet">

<g transform="translate(0.000000,830.000000) scale(0.100000,-0.100000)"
fill="#000000" stroke="none">
<path d="M1716 7798 c-3 -50 -6 -129 -6 -175 0 -49 -4 -83 -10 -83 -6 0 -59
24 -119 54 -142 72 -400 160 -417 144 -2 -3 20 -85 50 -184 30 -98 53 -180 50
-183 -2 -2 -60 1 -129 8 -157 16 -363 28 -392 23 -21 -4 -19 -9 34 -86 31 -44
85 -119 121 -166 l65 -84 -28 -21 c-125 -89 -519 -435 -508 -445 4 -4 64 -26
133 -49 194 -65 240 -83 240 -92 0 -4 -40 -68 -88 -141 -115 -174 -152 -233
-152 -242 0 -5 76 -5 168 -1 l169 7 6 -123 c6 -132 23 -215 44 -224 12 -4 33
31 33 56 0 5 4 9 9 9 4 0 11 -39 14 -87 7 -106 26 -167 53 -171 14 -1 34 20
74 79 70 103 74 107 95 75 25 -38 35 -32 35 24 0 54 10 64 28 28 5 -13 38 -53
71 -90 56 -61 61 -70 62 -115 2 -74 9 -89 73 -140 33 -26 74 -68 91 -93 17
-25 54 -62 81 -83 61 -47 183 -107 217 -107 40 0 123 -20 142 -34 17 -12 16
-15 -6 -45 -45 -61 -20 -187 57 -288 27 -36 25 -80 -5 -90 -39 -14 -51 -35
-51 -92 0 -55 -1 -56 -63 -116 -34 -34 -121 -100 -192 -147 -181 -119 -233
-178 -281 -318 -23 -68 -26 -296 -6 -405 16 -81 72 -309 101 -408 19 -66 19
-68 1 -110 -51 -116 -48 -230 10 -356 l31 -66 -30 -82 c-67 -181 -115 -425
-131 -662 l-11 -155 -99 -93 c-258 -244 -324 -441 -217 -647 17 -33 33 -64 35
-68 2 -3 -5 -8 -15 -11 -14 -4 -13 -5 5 -6 15 -1 56 -35 118 -101 90 -94 124
-120 111 -86 -3 8 -3 17 1 19 4 2 1 2 -6 0 -19 -4 -171 155 -210 220 -45 75
-72 157 -72 222 0 143 125 337 322 498 l45 37 6 122 c13 244 53 461 130 690
32 97 47 129 64 137 49 23 52 36 57 351 2 162 8 305 11 317 l7 22 48 -24 c58
-29 199 -76 301 -100 l77 -18 -15 -34 c-64 -154 -143 -739 -143 -1061 0 -117
-3 -164 -13 -174 -10 -11 -95 -120 -176 -228 -10 -14 -65 -83 -120 -155 l-102
-130 3 -56 c4 -60 59 -181 124 -272 26 -36 34 -57 34 -91 0 -73 37 -149 98
-201 l24 -21 -76 -24 c-42 -14 -76 -30 -76 -36 0 -8 76 -11 268 -10 l267 1 5
38 c7 50 24 48 28 -3 l3 -40 1012 -1 c557 0 1077 -2 1157 -5 l145 -4 70 97
c110 155 216 315 231 350 36 83 7 254 -63 383 l-36 65 6 220 c3 121 13 288 22
370 18 176 20 433 4 490 -6 22 -11 54 -11 70 3 289 1 387 -8 459 l-12 87 41
47 c23 26 76 92 119 146 42 55 99 124 125 154 63 70 148 201 239 365 70 127
73 135 77 210 2 53 -2 93 -13 127 -13 41 -14 53 -4 71 12 19 19 20 98 15 47
-3 247 -11 445 -17 l360 -11 560 239 c308 132 776 331 1040 443 264 112 485
208 490 213 12 11 -50 9 -1385 -38 -531 -19 -981 -35 -1001 -35 -29 0 -69 -24
-235 -140 -109 -77 -204 -140 -210 -140 -7 0 -33 17 -58 38 -26 22 -86 60
-134 85 -48 25 -93 55 -100 67 -33 53 -125 75 -202 49 -28 -10 -34 -9 -42 5
-27 48 -73 88 -116 99 -40 11 -52 21 -113 104 -38 51 -82 99 -98 108 -43 22
-111 19 -222 -11 l-98 -26 -57 61 c-61 66 -78 72 -141 46 -46 -20 -53 -19 -53
5 0 13 9 21 28 26 71 15 245 80 312 116 41 22 152 93 245 158 332 228 590 392
674 427 l36 15 -29 23 c-34 27 -90 43 -179 51 -37 3 -89 18 -130 36 l-68 30
-117 -79 c-64 -43 -215 -145 -335 -226 -197 -132 -438 -269 -451 -257 -2 3
-10 64 -16 135 -7 72 -18 164 -26 205 -8 41 -14 82 -14 91 0 27 380 152 680
223 285 67 555 102 705 91 150 -11 257 -25 311 -42 63 -19 84 -13 84 25 0 32
-31 73 -152 198 -62 65 -78 88 -78 111 0 55 -19 91 -53 102 -163 53 -382 36
-750 -56 -225 -56 -322 -90 -461 -163 -61 -31 -185 -90 -276 -129 l-166 -72
-55 55 c-51 51 -60 56 -100 56 -52 0 -106 -30 -114 -62 -3 -13 -6 -52 -7 -88
l-3 -65 -68 -23 c-149 -49 -444 -55 -489 -9 -49 51 -178 219 -173 226 2 5 37
14 77 21 89 15 233 62 232 75 -1 12 -76 64 -241 167 -73 46 -133 85 -132 88 0
3 37 29 82 58 91 59 132 90 125 97 -7 8 -115 33 -194 46 -44 7 -83 16 -88 20
-6 5 19 67 59 149 38 77 66 142 63 145 -7 7 -216 -37 -336 -71 -51 -15 -95
-25 -97 -22 -2 2 18 82 45 177 28 94 50 176 50 182 0 27 -70 -12 -340 -190
-96 -64 -179 -117 -185 -119 -5 -1 -26 21 -45 50 -100 149 -220 298 -241 298
-3 0 -9 -41 -13 -92z m89 -5 c30 -37 85 -111 122 -164 38 -54 74 -101 81 -104
7 -2 30 8 50 24 72 58 440 291 458 291 10 0 -3 -54 -45 -186 -22 -67 -43 -138
-46 -158 l-7 -36 39 14 c102 36 389 104 398 94 3 -3 -24 -64 -61 -136 -36 -73
-64 -137 -62 -144 2 -6 62 -22 134 -35 71 -13 133 -28 138 -33 5 -5 -17 -25
-50 -46 -130 -83 -153 -99 -154 -105 0 -3 46 -35 103 -70 138 -86 195 -123
241 -155 l39 -28 -54 -18 c-30 -10 -99 -28 -154 -40 -55 -11 -104 -24 -108
-28 -5 -4 -2 -16 6 -26 9 -11 51 -64 95 -119 l80 -100 -46 -8 c-25 -5 -55 -6
-67 -3 -11 4 -40 36 -65 73 -25 37 -70 97 -100 134 -30 37 -76 94 -102 127
-51 65 -135 139 -145 128 -4 -4 12 -45 35 -92 32 -63 40 -89 32 -99 -6 -7 -7
-21 -3 -31 4 -10 -27 9 -68 44 -77 63 -105 76 -95 44 11 -34 43 -192 39 -192
-3 0 -10 6 -16 13 -26 26 -286 335 -338 401 l-54 68 -85 -6 c-117 -8 -354 -68
-437 -110 -152 -77 -192 -119 -285 -300 l-63 -121 2 -270 c2 -277 12 -376 48
-445 15 -30 20 -86 9 -114 -5 -13 -9 -13 -23 5 -17 22 -17 21 -53 -27 -19 -27
-51 -72 -70 -101 -33 -48 -37 -51 -51 -35 -18 20 -37 135 -37 222 0 73 -17 78
-39 11 -7 -24 -17 -39 -22 -34 -17 17 -30 119 -28 217 1 89 0 101 -17 108 -11
4 -86 5 -168 1 -126 -5 -148 -4 -141 8 26 47 184 290 207 320 15 20 28 41 28
47 0 5 -48 26 -107 46 -239 80 -268 91 -268 101 1 20 493 435 516 435 24 0 -7
47 -178 273 -23 31 -43 59 -43 62 0 14 265 -3 488 -31 28 -4 52 -3 52 1 0 14
-86 297 -105 348 -11 26 19 22 152 -22 110 -36 263 -104 341 -153 18 -11 36
-18 39 -15 6 7 9 55 11 220 1 75 6 127 12 127 5 0 34 -30 65 -67z m232 -885
c6 -5 21 -30 33 -55 17 -37 21 -60 18 -117 l-3 -71 -65 -21 c-170 -56 -310
-144 -451 -286 -91 -93 -98 -97 -126 -89 -62 18 -70 28 -113 145 l-42 114 45
60 c82 106 179 184 314 251 142 71 342 106 390 69z m1817 -250 c183 -194 220
-324 246 -879 5 -119 15 -240 21 -270 11 -55 35 -196 64 -374 14 -90 45 -236
62 -290 5 -18 3 -17 -21 5 -15 13 -43 49 -63 79 -20 30 -39 49 -41 42 -6 -17
61 -113 106 -152 25 -22 43 -52 58 -97 13 -36 39 -88 58 -117 l34 -52 -150
-37 c-122 -31 -159 -36 -201 -31 -62 9 -159 46 -221 86 -25 15 -46 25 -46 20
0 -26 113 -89 199 -111 l63 -16 -178 -42 c-99 -23 -187 -42 -197 -42 -10 0
-41 10 -69 22 l-51 22 -28 -32 c-16 -18 -29 -40 -29 -48 0 -12 -6 -15 -22 -9
-13 4 -84 9 -158 12 -283 11 -589 -73 -737 -202 l-51 -45 -73 85 c-81 93 -108
146 -108 213 -1 36 5 49 29 74 29 29 34 30 83 24 59 -8 117 -23 269 -72 142
-45 256 -48 341 -9 45 21 76 27 174 32 71 3 124 11 133 18 8 7 34 22 57 34 49
24 113 78 113 94 0 6 -15 -3 -32 -19 -35 -33 -108 -80 -108 -70 0 12 239 364
286 422 l47 58 1 140 c2 587 -3 706 -34 932 -40 284 -52 589 -26 629 20 31 48
43 96 44 31 1 43 -8 104 -71z m-1397 -80 c22 -21 33 -27 33 -17 0 8 -6 21 -12
27 -18 18 127 -43 163 -68 36 -26 47 -49 154 -295 48 -111 92 -231 103 -282
21 -88 21 -88 2 -182 -34 -166 -97 -345 -142 -404 -74 -94 -183 -183 -303
-246 l-70 -36 -145 1 c-132 0 -152 2 -220 27 -81 30 -150 85 -150 122 0 15 -2
17 -9 6 -14 -22 -184 137 -176 164 3 11 8 34 10 50 5 28 4 27 -11 -7 -9 -21
-20 -38 -23 -38 -9 0 -91 123 -91 135 0 6 9 21 20 35 31 39 23 49 -9 11 l-28
-34 -102 143 c-85 118 -101 147 -96 168 11 45 73 166 114 223 43 60 52 64 209
95 50 9 26 25 -48 31 l-61 6 58 60 c80 82 316 257 347 257 3 0 -10 -32 -29
-72 -34 -69 -43 -109 -27 -107 4 0 19 26 34 57 40 84 117 166 170 181 90 25
136 30 217 26 79 -4 86 -6 118 -37z m-449 -57 c-13 -15 -25 -27 -27 -25 -7 6
29 54 40 54 6 0 0 -13 -13 -29z m764 -73 c33 -18 66 -41 73 -52 16 -25 33
-297 18 -281 -5 6 -25 48 -43 95 -18 47 -52 127 -76 178 -24 50 -40 92 -37 92
3 0 32 -14 65 -32z m163 6 c22 -9 60 -88 85 -175 23 -86 26 -194 6 -260 -8
-26 -17 -73 -21 -105 -8 -62 -19 -84 -41 -84 -19 0 -30 25 -48 113 -16 76 -16
79 4 104 29 37 26 86 -7 115 -16 13 -29 29 -30 36 -2 6 8 52 21 102 15 57 19
89 12 87 -6 -2 -15 -22 -20 -45 -13 -63 -26 -50 -26 26 0 83 16 104 65 86z
m446 -198 l256 0 17 -110 c31 -212 47 -356 41 -366 -14 -23 -411 5 -517 36 -9
3 -40 48 -70 101 l-53 96 -1 101 c0 56 -4 114 -8 129 l-8 28 43 -8 c24 -4 159
-8 300 -7z m-1751 -64 c0 -4 -22 -13 -50 -18 -51 -11 -59 -7 -38 14 13 13 88
17 88 4z m1290 -92 c0 -30 -24 -58 -34 -41 -4 5 -3 28 0 51 5 33 9 38 20 29 8
-6 14 -24 14 -39z m174 -185 c27 -47 46 -89 42 -92 -7 -8 -2 -15 -59 84 -49
87 -52 93 -39 93 5 0 30 -38 56 -85z m-21 -63 c-7 -2 -13 -8 -13 -13 0 -9 31
-125 46 -171 5 -17 3 -18 -14 -9 -29 16 -39 14 -45 -9 -9 -34 -33 -22 -50 23
-34 93 -42 130 -28 135 29 10 51 43 51 76 0 66 11 72 39 19 19 -34 23 -49 14
-51z m-108 -149 c17 -54 29 -105 28 -113 -1 -8 3 -22 8 -31 6 -13 1 -25 -21
-49 -17 -18 -30 -37 -30 -44 0 -6 -14 -17 -31 -23 -17 -7 -33 -21 -36 -33 -3
-11 -21 -27 -40 -35 -22 -9 -39 -25 -46 -44 -8 -21 -20 -32 -40 -37 -22 -4
-34 -16 -46 -45 -12 -30 -22 -39 -40 -39 -21 0 -16 8 43 70 70 74 99 125 135
230 31 90 71 240 71 268 0 46 17 19 45 -75z m-1551 5 c31 -46 84 -121 118
-168 34 -47 55 -80 47 -74 -66 49 -139 110 -139 117 0 4 -22 35 -50 68 -48 57
-58 86 -44 123 3 9 7 16 9 16 2 0 28 -37 59 -82z m1671 -68 c3 -5 -1 -10 -10
-10 -9 0 -13 5 -10 10 3 6 8 10 10 10 2 0 7 -4 10 -10z m195 -20 c58 -12 116
-23 128 -26 l24 -5 -26 -24 c-29 -26 -65 -98 -66 -128 0 -10 -10 -21 -22 -26
-13 -5 -32 -18 -42 -30 -11 -11 -23 -21 -27 -21 -5 0 -15 26 -24 58 -36 133
-47 163 -71 189 -30 32 -31 47 -1 39 12 -3 69 -15 127 -26z m206 -79 c-37 -38
-56 -77 -56 -116 0 -22 -3 -23 -37 -18 -21 3 -40 7 -42 9 -7 6 18 77 39 112
23 38 70 61 107 54 l25 -5 -36 -36z m105 -1 c-52 -38 -69 -71 -53 -104 17 -37
55 -58 99 -54 l38 3 -32 19 c-17 11 -36 30 -43 44 -9 21 -7 28 11 49 29 30 45
25 41 -15 -3 -23 2 -34 17 -44 16 -10 21 -23 21 -55 0 -50 -3 -51 -91 -26 -96
26 -130 74 -98 136 20 37 72 76 103 77 l29 0 -42 -30z m-2053 -67 c53 -42 133
-111 177 -152 44 -42 106 -100 138 -130 32 -29 55 -56 52 -59 -22 -22 -231 93
-279 152 -38 49 -122 134 -158 161 -18 14 -28 33 -32 63 -4 23 -4 42 -1 42 3
0 49 -35 103 -77z m3012 -125 c19 -11 49 -36 65 -56 26 -31 31 -46 35 -112 5
-63 11 -82 36 -120 86 -124 167 -339 167 -440 1 -39 -15 -106 -54 -230 -55
-175 -56 -175 -117 -240 -33 -36 -70 -78 -82 -93 -18 -22 -25 -25 -36 -16 -21
18 -153 7 -187 -16 -34 -22 -47 -12 -54 43 -6 44 11 127 30 150 9 11 14 9 30
-10 l19 -23 -7 25 c-27 99 -27 121 -10 234 l17 114 -35 51 c-58 84 -114 254
-146 446 -34 196 -35 181 7 213 93 73 199 116 257 105 17 -3 46 -14 65 -25z
m394 -73 c19 -9 42 -33 56 -58 13 -23 27 -44 30 -47 7 -5 141 -294 185 -400
34 -81 31 -158 -8 -235 -14 -27 -63 -122 -109 -210 l-83 -160 -79 -42 c-43
-24 -87 -50 -96 -58 -13 -11 -24 -13 -41 -7 -13 5 -48 13 -76 17 -29 4 -55 11
-58 15 -3 5 18 33 47 63 47 48 56 64 76 138 13 46 39 135 60 198 l36 114 -26
102 c-32 125 -85 252 -143 339 -36 56 -44 77 -50 135 -5 48 -3 71 5 76 20 12
183 42 213 39 16 -2 43 -11 61 -19z m2856 -1 c0 -2 -27 -60 -59 -127 l-59
-124 -76 -31 c-42 -18 -82 -32 -90 -32 -11 0 -5 23 24 93 21 52 47 113 59 137
12 24 21 47 21 52 0 13 -95 9 -108 -4 -7 -7 -12 -20 -12 -30 0 -15 -114 -307
-123 -314 -1 -1 -13 -5 -26 -9 -18 -6 -22 -4 -15 6 5 8 9 19 10 24 4 21 92
262 103 283 6 11 7 23 2 26 -8 6 -801 -11 -806 -16 -1 -2 -11 -28 -23 -58 -11
-30 -38 -93 -61 -140 -22 -47 -41 -88 -41 -92 0 -3 -18 -44 -39 -90 -21 -45
-55 -121 -76 -168 -80 -183 -98 -219 -113 -225 -25 -9 -25 1 3 62 15 32 33 72
40 88 70 157 131 289 177 385 31 63 68 150 84 193 21 56 35 79 49 82 11 2 261
11 555 20 294 9 542 17 550 19 17 2 50 -4 50 -10z m-1696 -64 c38 -1 40 -2 21
-15 -11 -8 -45 -35 -75 -59 -30 -24 -84 -64 -120 -88 -182 -124 -308 -208
-313 -208 -3 0 -8 17 -12 38 -4 20 -12 43 -18 50 -8 11 -7 16 3 22 8 5 47 31
85 59 39 27 90 63 115 81 25 17 77 54 115 81 65 48 73 51 114 45 24 -3 62 -6
85 -6z m-900 -24 c18 -7 44 -27 57 -44 13 -16 48 -42 77 -56 124 -62 229 -150
247 -206 12 -39 -5 -110 -49 -194 -87 -169 -279 -449 -328 -480 -12 -7 -34 -7
-74 2 -66 14 -67 14 -58 37 6 15 17 17 81 13 40 -3 73 -2 73 2 0 9 -51 20 -90
20 -14 0 -29 2 -32 5 -3 4 13 41 35 83 96 180 106 203 113 259 8 70 2 89 -108
331 -110 242 -103 220 -65 231 47 14 83 13 121 -3z m-2596 -20 c-6 -14 -20
-26 -32 -28 -11 -2 -30 -18 -41 -35 -16 -26 -25 -32 -43 -28 -18 5 -32 -3 -58
-30 -26 -28 -38 -34 -58 -29 -15 3 -38 -1 -57 -10 -18 -9 -44 -16 -58 -16 -14
0 -34 -7 -45 -15 -16 -12 -22 -12 -47 0 -15 8 -31 24 -34 36 -4 11 -21 29 -38
40 l-32 20 45 -8 c25 -5 92 -8 150 -8 92 1 113 4 170 29 36 15 90 45 120 66
66 46 73 48 58 16z m1768 -653 c-3 -10 -8 -36 -12 -57 l-7 -39 -23 44 c-29 55
-29 57 -1 62 44 8 48 7 43 -10z m-57 -62 c20 -38 31 -73 31 -99 l0 -40 -52
-11 c-28 -7 -55 -8 -59 -4 -4 5 -14 35 -24 68 -9 33 -23 72 -31 87 -14 27 -14
27 28 38 24 6 48 13 53 15 6 2 13 4 16 4 3 1 20 -26 38 -58z m-145 -33 c13
-29 27 -72 30 -94 7 -38 5 -42 -16 -48 -13 -3 -34 -6 -49 -6 -23 0 -26 5 -37
73 -7 39 -15 82 -18 94 -4 15 -1 23 13 26 46 12 54 7 77 -45z m-104 -17 c6
-27 12 -71 13 -97 2 -52 2 -51 -85 -68 l-38 -7 0 100 0 99 38 10 c58 16 59 15
72 -37z m-130 -63 c0 -45 -2 -79 -5 -77 -2 3 -18 37 -34 77 -26 63 -27 71 -13
75 51 14 52 12 52 -75z m-52 -26 c18 -46 31 -86 29 -89 -3 -2 -23 -7 -44 -10
l-38 -5 -17 88 c-13 68 -14 90 -5 96 26 17 43 -1 75 -80z m-99 31 c6 -21 13
-61 17 -89 5 -43 3 -52 -11 -58 -21 -8 -35 0 -35 22 0 9 -11 47 -23 84 -24 70
-23 76 20 77 17 1 24 -7 32 -36z m-130 -40 c-1 -62 -2 -62 -23 10 -13 44 -13
47 5 47 17 0 19 -7 18 -57z m65 -22 c17 -59 21 -100 9 -102 -35 -6 -58 -2 -57
9 1 6 2 49 3 94 1 71 3 80 15 68 8 -8 21 -39 30 -69z m1568 -54 c-31 -69 -85
-145 -158 -219 -54 -55 -77 -71 -128 -87 -76 -25 -161 -39 -296 -47 -92 -6
-110 -10 -145 -34 -228 -156 -460 -215 -632 -162 -33 10 -137 65 -231 121 -95
57 -186 108 -202 114 -17 6 -30 14 -30 17 0 3 15 21 34 39 32 31 37 33 67 22
43 -15 44 -15 81 17 28 25 78 40 343 106 171 42 313 76 317 76 4 0 2 -15 -3
-32 -22 -77 -6 -140 45 -178 48 -36 155 -61 181 -42 6 4 21 23 35 43 l24 37
27 -20 c36 -27 144 -23 176 7 23 21 95 68 183 118 30 18 60 42 65 55 8 19 15
22 40 18 127 -23 139 -20 189 47 36 48 43 41 18 -16z m-2072 -144 c0 -13 -79
-54 -154 -80 -80 -28 -276 -45 -276 -24 0 18 97 62 194 87 87 22 236 33 236
17z m1475 -23 c22 -5 57 -10 77 -12 35 -2 37 -3 21 -20 -23 -26 -82 -40 -122
-28 -48 14 -63 28 -50 51 11 21 18 22 74 9z m-140 -40 c3 -6 -3 -24 -15 -40
-16 -23 -29 -30 -53 -30 -31 0 -117 33 -117 45 0 26 170 49 185 25z m-2083
-197 c-23 -133 -32 -239 -32 -371 0 -103 -3 -133 -12 -129 -16 5 -16 296 0
407 19 129 33 183 45 171 7 -7 7 -30 -1 -78z m1078 40 c82 -43 97 -58 106 -96
20 -92 169 -293 246 -333 47 -24 172 -44 278 -44 81 0 112 -5 172 -26 40 -15
78 -29 83 -33 6 -4 36 -16 68 -26 31 -11 57 -24 57 -31 0 -11 -12 -45 -78
-219 -58 -154 -225 -547 -286 -673 -20 -40 -36 -77 -36 -83 0 -6 -5 -7 -12 -3
-6 4 -8 3 -5 -3 4 -6 -16 -52 -43 -104 -28 -51 -50 -97 -50 -101 0 -12 16 -10
28 5 24 29 181 354 254 526 22 53 53 124 69 159 16 35 32 74 35 88 3 13 11 21
17 17 6 -3 7 -1 3 6 -8 12 42 143 56 149 5 2 8 12 8 22 0 10 16 61 36 113 l36
96 54 -20 c60 -23 84 -19 123 17 20 19 27 21 33 10 4 -7 13 -88 19 -180 12
-167 3 -341 -20 -355 -8 -6 -15 -40 -43 -214 -7 -48 -14 -65 -20 -55 -6 9 -7
6 -3 -9 6 -21 -59 -308 -75 -328 -4 -5 -11 -26 -15 -45 -4 -19 -18 -56 -31
-82 -27 -54 -31 -83 -10 -75 8 3 17 3 19 -1 2 -4 2 -1 1 5 -2 7 6 34 17 60 37
87 90 266 108 368 6 33 16 76 21 95 6 19 17 80 26 135 20 125 29 143 39 79 14
-90 11 -207 -11 -489 -13 -154 -23 -347 -23 -429 -1 -146 -1 -149 28 -200 16
-28 42 -87 56 -131 23 -68 27 -92 23 -166 l-4 -86 -70 -103 c-38 -57 -77 -117
-87 -134 -11 -17 -27 -40 -36 -51 -9 -11 -29 -38 -44 -60 -56 -81 -53 -79 -89
-65 -18 7 -68 30 -110 51 -143 71 -290 107 -533 131 -252 25 -1018 12 -1268
-21 l-59 -8 -26 41 c-14 23 -63 115 -108 205 l-82 163 32 77 c51 116 189 398
235 476 77 130 88 222 47 375 -28 103 -31 173 -16 310 32 292 147 826 180 838
58 21 228 183 405 385 27 31 53 57 58 57 4 0 31 16 60 35 58 39 60 39 157 -12z
m-1090 -776 c0 -7 -16 -46 -36 -87 -106 -222 -162 -482 -182 -850 -9 -156 -28
-166 -25 -12 4 235 45 502 106 683 59 177 137 328 137 266z m-221 -1209 l-2
-90 -49 -59 c-67 -81 -168 -231 -203 -303 l-29 -59 17 -66 c10 -36 35 -104 57
-149 45 -95 44 -92 27 -92 -19 0 -84 137 -109 230 l-21 80 37 75 c44 88 105
181 188 282 l58 71 0 85 c0 46 3 87 6 90 18 17 25 -13 23 -95z"/>
<path d="M1662 6789 c-4 -11 -26 -30 -47 -42 -52 -29 -78 -78 -70 -132 10 -72
12 -94 14 -130 0 -19 5 -35 9 -35 19 0 151 123 161 150 13 39 -2 84 -35 99
-50 22 -128 -37 -111 -83 4 -9 18 -21 31 -28 32 -14 56 4 55 41 l-1 26 -11
-28 c-12 -30 -34 -32 -51 -4 -9 15 -6 23 18 43 35 31 65 28 85 -8 14 -24 14
-30 -2 -63 -9 -19 -29 -41 -43 -47 -22 -10 -32 -9 -63 9 -75 43 -49 149 47
189 24 11 32 21 32 39 0 30 -8 32 -18 4z m-57 -255 l25 -16 -24 -19 c-33 -26
-36 -24 -36 16 0 40 2 41 35 19z"/>
<path d="M2360 6429 c-64 -7 -125 -31 -158 -61 -24 -23 -82 -109 -82 -123 0
-4 27 18 60 49 68 65 106 84 190 93 39 4 65 12 76 24 10 11 15 20 13 20 -14 5
-51 4 -99 -2z"/>
<path d="M2600 6316 c-64 -19 -124 -45 -117 -52 4 -4 30 3 58 16 28 12 76 24
105 27 30 3 54 10 54 14 0 12 -46 10 -100 -5z"/>
<path d="M1720 6150 c0 -5 7 -7 15 -4 25 10 83 -16 115 -53 17 -19 34 -32 37
-29 9 8 -46 64 -79 82 -31 16 -88 19 -88 4z"/>
<path d="M2620 6130 c-17 -5 4 -8 63 -9 57 -1 86 3 82 9 -7 12 -109 12 -145 0z"/>
<path d="M1575 6071 c-58 -36 -105 -108 -105 -161 0 -22 64 -99 75 -89 3 4 -2
25 -11 48 -20 50 -14 92 21 137 36 47 81 59 149 40 30 -9 58 -21 61 -26 11
-19 25 -10 25 15 0 15 -5 25 -12 24 -7 -1 -30 5 -50 14 -50 22 -116 21 -153
-2z"/>
<path d="M1632 6005 c-30 -13 -52 -47 -52 -81 0 -9 13 -29 29 -45 38 -38 91
-40 126 -4 42 41 30 102 -25 130 -35 18 -36 18 -78 0z m98 -34 c14 -26 13 -61
-2 -61 -6 0 -8 -3 -5 -7 13 -13 -16 -33 -48 -33 -36 0 -50 12 -60 50 -9 36 25
70 70 70 24 0 38 -6 45 -19z"/>
<path d="M1653 5945 c-9 -10 -7 -17 11 -34 20 -19 24 -19 44 -5 34 23 28 49
-11 51 -17 0 -37 -5 -44 -12z"/>
<path d="M2726 5950 c22 -5 58 -16 79 -24 43 -18 45 -19 45 -8 0 13 -92 42
-130 41 l-35 -1 41 -8z"/>
<path d="M2455 5885 c-16 -14 -39 -28 -50 -31 -31 -10 -242 -184 -321 -266
-39 -40 -76 -86 -82 -103 -5 -16 -13 -37 -16 -46 -10 -22 82 -64 120 -55 28 7
400 227 461 272 34 26 48 67 38 114 -11 49 -22 34 -17 -24 l4 -53 -43 -30
c-74 -51 -399 -244 -436 -259 -27 -12 -38 -12 -49 -3 -17 14 -18 41 -1 58 10
11 8 11 -10 0 -17 -10 -25 -11 -34 -2 -18 18 12 62 99 145 82 79 277 238 291
238 4 0 28 14 53 30 38 26 50 29 72 20 21 -8 26 -16 26 -45 0 -19 5 -35 10
-35 18 0 11 59 -10 80 -27 27 -68 25 -105 -5z"/>
<path d="M2121 5876 c-8 -9 -11 -19 -7 -23 9 -9 29 13 24 27 -2 8 -8 7 -17 -4z"/>
<path d="M1950 5828 c0 -19 35 -51 50 -46 6 2 -3 16 -20 33 -21 20 -30 24 -30
13z"/>
<path d="M2027 5823 c-13 -13 -7 -18 24 -20 26 -2 29 0 19 12 -13 16 -32 19
-43 8z"/>
<path d="M2465 5770 c-3 -6 1 -7 9 -4 18 7 21 14 7 14 -6 0 -13 -4 -16 -10z"/>
<path d="M2900 6213 c0 -5 15 -20 34 -35 58 -47 57 -76 -12 -210 -2 -5 0 -8 6
-8 20 0 62 98 62 145 0 40 -5 52 -34 81 -32 32 -56 43 -56 27z"/>
<path d="M4000 2825 c-23 -30 -47 -55 -52 -55 -5 0 -7 -4 -3 -9 3 -5 1 -13 -5
-16 -6 -4 -29 -32 -52 -63 -23 -31 -65 -84 -93 -118 -27 -33 -77 -94 -110
-134 -85 -103 -156 -187 -269 -316 -23 -27 -33 -44 -24 -44 16 0 58 42 157
160 35 41 83 98 106 125 23 28 61 73 83 100 22 28 73 91 113 141 41 50 85 106
99 124 14 18 30 38 35 44 48 52 75 89 75 101 0 27 -17 16 -60 -40z"/>
<path d="M4727 973 c3 -7 6 -13 8 -13 2 0 5 6 8 13 3 8 -1 14 -8 14 -7 0 -11
-6 -8 -14z"/>
<path d="M1250 921 c0 -6 4 -13 10 -16 6 -3 7 1 4 9 -7 18 -14 21 -14 7z"/>
</g>
</svg>
