<?xml version="1.0" standalone="no"?>
<!DOCTYPE svg PUBLIC "-//W3C//DTD SVG 20010904//EN"
 "http://www.w3.org/TR/2001/REC-SVG-20010904/DTD/svg10.dtd">
<svg version="1.0" xmlns="http://www.w3.org/2000/svg"
 width="860.000000pt" height="944.000000pt" viewBox="0 0 860.000000 944.000000"
 preserveAspectRatio="xMidYMid meet">

<g transform="translate(0.000000,944.000000) scale(0.100000,-0.100000)"
fill="#000000" stroke="none">
<path d="M4960 8995 c-13 -13 -33 -28 -44 -31 -12 -4 -26 -14 -33 -23 -11 -15
-12 -14 -13 2 0 25 -6 22 -47 -24 -38 -42 -63 -47 -116 -24 -16 7 -18 4 -15
-26 3 -31 0 -35 -29 -44 -33 -9 -44 -29 -20 -38 8 -4 9 -8 1 -14 -6 -4 -19
-24 -29 -43 -10 -19 -32 -47 -49 -62 l-31 -26 26 -7 c25 -6 26 -8 16 -42 -8
-24 -8 -37 0 -41 21 -14 38 -81 27 -110 -11 -29 -2 -125 17 -188 20 -67 7
-114 -34 -114 -26 0 -167 -48 -195 -66 -22 -14 -23 -21 -18 -77 2 -34 9 -91
14 -127 8 -63 7 -66 -17 -85 -62 -46 -88 -85 -114 -164 -15 -44 -27 -92 -27
-106 0 -27 -28 -90 -61 -137 -13 -17 -19 -43 -19 -77 0 -45 -4 -56 -38 -94
-48 -53 -99 -132 -148 -227 l-38 -75 2 -119 2 -119 -39 -66 c-88 -149 -150
-296 -182 -431 -4 -19 -13 -55 -19 -80 -40 -158 -41 -387 -2 -457 14 -26 61
-53 91 -53 34 0 212 82 287 132 23 16 46 28 51 28 6 0 18 9 28 20 10 11 38 31
61 45 24 14 44 30 44 35 0 5 17 21 38 34 22 13 45 30 53 38 8 7 26 18 40 25
26 11 27 10 34 -20 4 -18 9 -59 12 -92 2 -33 9 -64 14 -70 5 -5 9 -23 9 -40
l1 -30 19 37 c11 20 24 69 30 110 6 40 15 108 21 151 7 42 16 80 22 84 7 4 8
-7 4 -33 -4 -21 -14 -93 -23 -158 -15 -116 -42 -196 -65 -196 -7 0 -9 -13 -5
-37 11 -59 26 -191 32 -271 4 -57 2 -78 -10 -97 -13 -20 -116 -103 -237 -192
-17 -12 -48 -37 -69 -55 -20 -18 -61 -51 -90 -73 -29 -22 -83 -68 -119 -103
-36 -35 -79 -72 -96 -82 -16 -10 -68 -57 -114 -104 -45 -47 -90 -86 -98 -86
-8 0 -40 -13 -71 -29 -31 -15 -73 -34 -92 -41 -78 -27 -97 -36 -125 -54 -36
-24 -257 -136 -267 -136 -7 0 -242 -150 -340 -217 -18 -12 -58 -39 -88 -60
-53 -35 -54 -37 -30 -44 69 -19 211 6 309 55 58 30 71 32 71 11 0 -17 -89 -64
-168 -90 -54 -18 -60 -27 -40 -70 15 -34 56 -55 108 -55 42 0 50 -9 25 -30
-20 -16 -96 -8 -130 14 -14 9 -35 37 -47 61 -20 41 -25 45 -57 45 -20 0 -55 9
-79 20 l-43 19 -72 -58 c-69 -56 -270 -260 -349 -354 -21 -24 -38 -53 -38 -65
0 -11 15 -40 32 -64 32 -42 56 -77 110 -164 44 -70 118 -223 118 -244 0 -11
-16 -52 -35 -90 -19 -38 -35 -79 -35 -90 0 -29 178 -368 218 -415 10 -11 33
-42 51 -70 46 -68 310 -335 396 -399 75 -57 191 -136 198 -136 3 0 36 -19 73
-42 161 -97 332 -160 375 -137 9 5 89 104 177 221 87 117 172 227 188 245 16
17 41 47 57 67 15 20 36 40 47 46 24 13 36 1 141 -148 l80 -112 0 -198 c0
-201 -15 -428 -32 -492 -5 -19 -9 -60 -9 -91 0 -31 -11 -116 -25 -190 -14 -74
-25 -146 -25 -161 0 -15 -5 -38 -11 -52 -18 -39 -3 -75 38 -92 49 -21 200 -30
245 -15 51 17 58 46 58 230 0 98 6 190 16 246 11 61 14 113 9 162 -4 46 -1
105 9 170 8 54 20 136 27 183 13 100 62 211 157 360 52 81 127 204 168 275 37
64 163 272 207 340 94 146 87 160 86 -166 0 -178 -4 -302 -12 -333 l-11 -48
37 -34 c20 -19 46 -34 57 -34 30 0 36 -24 64 -230 34 -252 51 -520 36 -585 -6
-28 -13 -95 -15 -150 -1 -56 -9 -120 -18 -145 -31 -91 -49 -177 -51 -250 -2
-41 -8 -95 -15 -119 -19 -67 -3 -97 63 -115 101 -29 195 -35 356 -25 85 6 233
14 327 17 157 6 174 9 194 28 19 19 20 25 8 65 -7 24 -11 54 -10 66 2 20 -36
57 -79 77 -8 4 -26 13 -40 21 -14 8 -35 15 -46 15 -12 0 -62 23 -111 50 -81
45 -99 61 -173 151 l-83 102 5 416 c3 229 1 391 -3 361 -4 -30 -10 -219 -13
-420 -5 -345 -7 -376 -36 -560 -17 -107 -35 -233 -41 -280 -5 -47 -11 -91 -14
-97 -6 -17 -52 -17 -61 -1 -5 7 -18 127 -31 266 -12 140 -28 266 -35 280 -7
15 -28 36 -45 47 -29 18 -32 25 -33 72 0 29 5 87 11 129 15 95 -1 356 -37 619
-13 99 -24 180 -24 181 0 1 23 -3 51 -7 27 -4 111 -11 185 -15 l134 -7 1 -41
c0 -32 2 -37 9 -21 5 11 9 31 9 43 1 13 11 32 23 41 18 15 25 44 49 207 18
122 28 232 28 311 1 98 6 140 26 215 24 87 26 107 24 308 -1 160 4 265 20 410
36 333 38 342 67 400 15 30 41 96 57 145 l31 90 3 285 c4 319 -8 489 -39 560
-16 36 -20 65 -19 145 0 99 -30 469 -49 575 -5 30 -14 95 -20 144 -6 48 -40
211 -76 362 -35 151 -64 281 -64 289 0 9 9 15 23 15 17 0 28 -12 46 -50 16
-34 32 -52 48 -56 42 -11 115 18 210 83 61 42 102 63 121 63 16 0 54 4 83 10
89 16 124 69 241 367 41 102 43 113 43 209 -1 124 -7 135 -112 203 -43 27 -87
56 -98 64 -11 8 -60 72 -110 142 -49 70 -113 153 -140 184 -74 82 -99 122 -97
150 2 43 -78 173 -121 196 -47 25 -137 164 -255 394 -65 126 -101 182 -148
234 -38 43 -60 75 -57 85 2 10 -10 31 -31 51 -19 18 -32 40 -29 47 3 8 -6 18
-21 25 -25 12 -36 39 -16 39 6 0 10 7 10 15 0 12 -14 15 -70 15 -58 0 -68 3
-64 15 5 13 -8 15 -80 15 -85 0 -86 0 -76 21 7 11 10 23 7 25 -2 3 -35 -7 -72
-21 l-67 -25 6 25 c8 31 5 31 -24 0z m203 -150 c4 -8 2 -17 -2 -20 -5 -2 -11
4 -14 15 -6 23 8 27 16 5z m108 3 c35 -12 65 -35 57 -44 -3 -2 -10 2 -16 9 -8
10 -25 12 -62 7 -56 -7 -71 -17 -50 -30 9 -6 10 -10 3 -10 -6 0 -9 -8 -6 -18
2 -11 -3 -24 -14 -32 -15 -12 -16 -12 -5 0 6 8 12 21 12 30 -1 12 -4 11 -15
-4 -18 -24 -19 -17 -2 20 10 23 55 84 62 84 1 0 17 -5 36 -12z m-155 -17 c-4
-5 -1 -11 6 -13 7 -3 3 -7 -10 -10 -19 -5 -20 -4 -11 13 5 10 12 19 15 19 3 0
3 -4 0 -9z m-73 -38 c-8 -3 -11 -14 -7 -28 3 -13 0 -26 -6 -30 -9 -5 -10 -1
-6 16 7 23 7 23 -8 5 -17 -21 -19 -15 -10 19 3 13 14 21 27 22 12 0 16 -1 10
-4z m312 -3 c-3 -5 -12 -10 -18 -10 -7 0 -6 4 3 10 19 12 23 12 15 0z m-242
-40 c-3 -10 0 -21 6 -24 16 -10 13 -55 -4 -72 -18 -18 -20 -11 -3 15 9 15 8
26 -5 52 l-17 34 0 -28 c0 -16 4 -26 10 -22 6 3 10 -1 10 -9 0 -8 -4 -17 -9
-20 -11 -7 -21 27 -21 71 0 26 3 30 19 26 12 -3 17 -11 14 -23z m237 -8 c3 -2
-6 -1 -19 3 -16 5 -21 4 -17 -4 5 -7 1 -8 -10 -4 -11 4 -13 8 -6 11 7 2 9 8 6
14 -6 9 34 -8 46 -20z m-85 8 c4 -6 1 -9 -7 -8 -7 2 -12 -4 -10 -12 3 -12 1
-13 -10 -2 -11 11 -10 14 2 22 19 12 18 12 25 0z m105 -62 c0 -5 -7 -3 -15 6
-8 8 -15 18 -15 22 0 3 7 1 15 -6 8 -7 15 -17 15 -22z m-325 -17 c2 -12 0 -19
-6 -16 -5 4 -9 16 -9 27 0 26 9 19 15 -11z m-25 -18 c0 -22 -2 -25 -10 -13
-13 20 -13 40 0 40 6 0 10 -12 10 -27z m316 15 c4 -7 3 -8 -4 -4 -7 4 -12 2
-12 -4 0 -6 -5 -8 -10 -5 -11 7 -4 25 10 25 5 0 12 -5 16 -12z m71 -8 c-1 -12
-5 -16 -10 -11 -5 5 -6 14 -3 20 11 16 15 13 13 -9z m-240 -32 c-3 -7 -5 -2
-5 12 0 14 2 19 5 13 2 -7 2 -19 0 -25z m-28 -11 c0 -9 -2 -8 -6 1 -2 6 -10 9
-15 6 -7 -4 -8 -2 -4 5 9 13 26 5 25 -12z m-81 -17 c-15 -24 -19 -21 -11 8 3
12 9 19 14 16 5 -3 3 -14 -3 -24z m78 -18 c-4 -3 -14 2 -24 12 -16 18 -16 18
6 6 13 -6 21 -14 18 -18z m-157 -57 c0 -5 -4 -3 -9 5 -5 8 -9 22 -9 30 0 16
17 -16 18 -35z m96 26 c-3 -5 0 -15 7 -23 17 -17 22 -58 9 -58 -6 0 -11 10
-11 23 0 12 -4 29 -9 37 -9 13 -6 30 5 30 3 0 3 -4 -1 -9z m85 -35 c0 -19 -17
-29 -25 -16 -4 6 -11 7 -17 4 -7 -4 -8 -2 -4 4 4 6 14 8 23 5 11 -4 14 -3 9 5
-4 7 -2 12 3 12 6 0 11 -6 11 -14z m40 -5 c0 -6 -4 -13 -10 -16 -5 -3 -10 1
-10 9 0 9 5 16 10 16 6 0 10 -4 10 -9z m110 -17 c-1 -4 3 -10 8 -13 6 -4 5
-10 -3 -17 -9 -9 -12 -4 -13 25 0 20 2 30 5 24 2 -7 4 -15 3 -19z m-240 6 c0
-5 -2 -10 -4 -10 -3 0 -8 5 -11 10 -3 6 -1 10 4 10 6 0 11 -4 11 -10z m154
-59 c-9 -28 -21 -51 -26 -51 -5 0 -6 -4 -3 -10 4 -6 -1 -7 -11 -3 -12 4 -15 3
-10 -5 10 -17 0 -15 -31 6 -21 13 -25 14 -18 2 14 -22 15 -40 3 -40 -6 0 -8 7
-5 15 4 8 2 17 -3 20 -19 12 -11 33 10 28 11 -3 20 -9 20 -14 0 -14 17 -11 34
7 21 21 20 35 -1 28 -10 -3 -7 2 7 11 l25 16 -25 -6 -25 -6 26 15 c15 9 30 23
33 32 4 9 9 14 12 12 3 -3 -2 -29 -12 -57z m-188 17 c10 -13 12 -17 4 -10 -15
13 -34 17 -26 4 2 -4 -2 -15 -9 -25 -13 -18 -14 -18 -25 3 -10 18 -8 24 7 36
24 18 27 18 49 -8z m119 12 c-3 -5 -11 -10 -16 -10 -6 0 -7 5 -4 10 3 6 11 10
16 10 6 0 7 -4 4 -10z m120 -17 c-3 -16 -8 -46 -11 -68 -7 -45 -17 -66 -46
-100 -18 -21 -22 -22 -35 -9 -9 8 -12 18 -8 22 4 4 10 1 12 -5 6 -17 23 -16
23 1 0 8 7 17 16 20 9 4 14 13 10 21 -3 8 -1 15 3 15 5 0 7 8 4 18 -2 10 3 31
11 47 8 15 13 32 10 37 -3 4 -2 13 1 18 11 18 15 10 10 -17z m-208 -28 c-4 -8
-2 -17 3 -20 6 -4 10 -1 10 4 0 6 5 11 11 11 8 0 8 -5 -1 -15 -7 -8 -17 -12
-22 -9 -5 3 -4 -3 4 -15 7 -12 18 -21 25 -21 7 0 13 -2 13 -4 0 -2 3 -11 6
-20 4 -11 1 -16 -11 -16 -9 0 -14 4 -11 8 2 4 -4 14 -16 21 -11 7 -17 8 -13 2
3 -7 -2 -11 -14 -11 -12 0 -21 5 -21 11 0 5 5 7 11 3 9 -5 10 1 5 20 -4 15 -2
26 4 26 5 0 9 3 9 8 -3 15 1 32 7 32 3 0 4 -7 1 -15z m90 -11 c-3 -3 -12 -4
-19 -1 -8 3 -5 6 6 6 11 1 17 -2 13 -5z m-139 -49 c-3 -3 -9 2 -12 12 -6 14
-5 15 5 6 7 -7 10 -15 7 -18z m-8 -45 c7 0 11 -3 7 -6 -10 -10 -45 6 -52 23
-5 15 -4 15 13 0 10 -9 25 -17 32 -17z m204 12 c3 -5 -1 -9 -9 -9 -8 0 -15 4
-15 9 0 4 4 8 9 8 6 0 12 -4 15 -8z m81 -30 c-2 -34 -13 -54 -26 -47 -13 8
-11 -9 2 -22 14 -14 5 -29 -20 -36 -13 -3 -18 -1 -14 9 2 7 11 10 19 7 8 -3
14 -1 14 5 0 5 -7 13 -16 16 -14 5 -14 8 0 28 9 12 16 30 16 39 0 10 6 20 13
22 6 3 12 6 13 6 0 1 0 -12 -1 -27z m-145 -12 c-19 -13 -30 -13 -30 0 0 6 10
10 23 10 18 0 19 -2 7 -10z m-31 -26 c14 -12 -19 -1 -35 12 -18 14 -18 14 6 3
14 -6 27 -13 29 -15z m88 -17 c3 -3 0 -13 -5 -23 -9 -16 -10 -15 -17 5 -5 15
-12 20 -25 16 -10 -3 -21 -2 -24 3 -6 9 62 8 71 -1z m168 3 c4 -6 -3 -25 -14
-44 -23 -36 -28 -61 -10 -50 7 4 10 2 8 -5 -3 -7 -8 -12 -12 -12 -4 1 -14 1
-22 1 -8 0 -19 10 -26 21 -8 15 -8 19 0 15 7 -4 10 0 9 11 0 10 0 27 1 38 2
16 5 13 12 -9 5 -20 4 -34 -3 -43 -6 -7 -8 -16 -6 -19 5 -4 58 81 58 93 0 3
-6 0 -13 -6 -10 -8 -14 -7 -14 4 0 17 23 20 32 5z m45 -51 c0 -6 -4 -7 -10 -4
-5 3 -10 11 -10 16 0 6 5 7 10 4 6 -3 10 -11 10 -16z m26 -31 c4 -6 3 -8 -4
-4 -6 3 -14 1 -18 -5 -3 -6 -1 -15 5 -19 8 -5 10 -19 6 -43 -6 -29 -10 -34
-20 -24 -11 10 -11 15 1 28 18 20 18 35 0 20 -10 -9 -16 -8 -26 4 -11 13 -10
14 5 9 13 -5 16 -3 13 7 -3 8 2 19 11 26 20 15 18 15 27 1z m264 -1510 c0 -7
-7 -22 -15 -32 -19 -25 -19 -74 0 -151 19 -78 19 -78 -5 -72 -41 11 -50 -16
-50 -142 0 -119 13 -185 34 -178 6 2 12 27 14 55 4 71 22 66 22 -6 0 -102 -42
-122 -69 -32 -24 80 -57 62 -92 -50 -21 -66 -50 -212 -44 -219 2 -1 14 4 27
13 46 33 74 15 143 -95 73 -115 113 -159 141 -159 34 0 38 18 19 86 -8 33 -18
96 -22 142 -5 72 -4 82 11 82 9 0 16 -6 16 -12 0 -7 5 -52 10 -100 13 -112 42
-190 91 -243 22 -23 39 -52 39 -64 0 -21 -1 -21 -29 -6 -17 8 -42 30 -56 49
-23 30 -31 34 -59 29 -43 -7 -87 31 -147 125 -66 103 -99 142 -119 142 -11 0
-35 -13 -53 -30 -19 -16 -37 -30 -41 -30 -9 0 -7 73 5 153 16 113 56 222 95
264 33 35 34 37 34 125 0 87 18 158 41 158 4 0 7 38 6 84 -1 70 1 88 17 105
21 24 36 27 36 9z m-1196 -2488 c34 -12 82 -66 98 -107 7 -18 16 -33 20 -33 5
0 46 20 92 44 104 55 159 65 223 41 82 -32 153 -113 153 -176 0 -41 -33 -133
-56 -156 -38 -38 -45 -27 -19 30 18 38 25 69 25 116 0 62 -1 65 -45 109 l-45
45 -82 -5 c-138 -8 -261 -76 -416 -230 -98 -98 -153 -195 -160 -284 -5 -59
-20 -68 -34 -18 -27 94 65 236 261 405 l65 55 -19 52 c-32 88 -100 115 -205
83 -82 -26 -163 -80 -263 -174 l-78 -74 -33 33 c-37 37 -103 58 -149 49 -55
-12 -112 -52 -185 -130 -79 -85 -134 -182 -152 -271 -16 -76 -5 -100 55 -116
50 -14 57 -25 21 -34 -35 -8 -92 22 -106 57 -30 72 26 223 125 339 58 68 65
84 39 94 -29 11 -89 -13 -186 -74 -53 -33 -101 -60 -107 -60 -19 0 -12 34 24
109 20 41 33 76 31 79 -15 14 -196 -255 -225 -334 -60 -158 -51 -297 23 -389
l25 -30 63 63 c59 57 98 78 98 51 0 -7 -25 -37 -56 -68 -66 -66 -79 -89 -92
-158 -27 -152 48 -272 176 -281 73 -5 91 4 142 73 39 53 60 68 60 43 0 -6 -18
-42 -40 -79 -30 -51 -40 -78 -40 -112 0 -31 -6 -49 -19 -62 -20 -17 -20 -16
-23 41 l-3 59 -46 -3 c-26 -2 -64 1 -85 7 -53 14 -139 92 -155 139 -15 43 -14
161 0 211 9 31 7 37 -24 74 -62 73 -80 121 -79 217 1 98 21 174 71 274 72 144
162 260 248 321 83 60 85 47 11 -85 -30 -52 -52 -96 -51 -98 2 -2 51 22 109
52 106 56 159 69 184 44 8 -8 21 -5 50 15 113 74 194 76 294 5 15 -11 25 -5
70 39 127 123 237 183 335 183 34 0 73 -4 87 -10z m-46 -2398 c40 -52 78 -103
85 -113 16 -25 22 -24 36 7 6 15 13 25 15 23 2 -2 -4 -58 -15 -124 -10 -66
-19 -174 -19 -240 0 -66 -3 -137 -6 -158 -6 -36 -7 -37 -21 -17 -8 11 -27 27
-43 35 -33 17 -135 20 -174 5 -21 -8 -25 -6 -28 13 -2 12 3 56 10 97 20 123
32 285 32 465 l1 170 27 -35 c15 -19 60 -76 100 -128z m1640 -1088 c30 -8 28
-22 -3 -19 -14 2 -25 -1 -25 -6 0 -5 23 -9 50 -9 44 0 52 -3 60 -24 5 -13 17
-29 27 -34 10 -6 15 -14 11 -18 -4 -3 -23 7 -43 25 -27 24 -45 31 -75 31 -22
0 -40 3 -40 8 0 4 -3 17 -6 30 -7 23 2 27 44 16z m69 -103 c6 -13 19 -28 27
-33 9 -5 16 -13 16 -17 0 -15 -62 -21 -100 -11 -33 9 -38 14 -42 45 -2 20 -2
38 1 41 3 3 23 4 45 2 31 -2 43 -9 53 -27z"/>
<path d="M5276 8283 c-6 -14 -5 -15 5 -6 7 7 10 15 7 18 -3 3 -9 -2 -12 -12z"/>
</g>
</svg>
