<?xml version="1.0" standalone="no"?>
<!DOCTYPE svg PUBLIC "-//W3C//DTD SVG 20010904//EN"
 "http://www.w3.org/TR/2001/REC-SVG-20010904/DTD/svg10.dtd">
<svg version="1.0" xmlns="http://www.w3.org/2000/svg"
 width="183.000000pt" height="276.000000pt" viewBox="0 0 183.000000 276.000000"
 preserveAspectRatio="xMidYMid meet">

<g transform="translate(0.000000,276.000000) scale(0.100000,-0.100000)"
fill="#000000" stroke="none">
<path d="M1030 2736 c0 -2 11 -6 25 -8 13 -3 22 -1 19 3 -5 9 -44 13 -44 5z"/>
<path d="M962 2693 c-21 -21 -24 -26 -7 -12 16 15 39 31 50 37 11 6 14 12 7
12 -7 0 -30 -17 -50 -37z"/>
<path d="M1090 2722 c0 -16 38 -44 45 -33 3 6 2 11 -4 11 -5 0 -17 7 -25 16
-9 8 -16 11 -16 6z"/>
<path d="M1110 2726 c0 -2 7 -7 16 -10 8 -3 12 -2 9 4 -6 10 -25 14 -25 6z"/>
<path d="M1073 2631 c1 -3 -2 -8 -8 -9 -16 -6 -35 -24 -35 -33 0 -16 47 -9 61
9 12 15 12 16 -1 6 -17 -13 -52 -15 -44 -2 3 5 9 6 13 3 5 -2 16 4 25 14 13
14 14 18 2 18 -8 0 -14 -3 -13 -6z"/>
<path d="M1176 2603 c-6 -14 -5 -15 5 -6 7 7 10 15 7 18 -3 3 -9 -2 -12 -12z"/>
<path d="M1095 2580 c-3 -5 -1 -10 4 -10 6 0 11 5 11 10 0 6 -2 10 -4 10 -3 0
-8 -4 -11 -10z"/>
<path d="M1153 2583 c4 -6 2 -14 -3 -16 -6 -3 -5 -4 2 -3 7 2 23 -6 36 -17 21
-19 22 -19 22 -2 0 10 -3 15 -7 12 -3 -4 -18 3 -31 15 -14 13 -22 18 -19 11z"/>
<path d="M1005 2474 c20 -16 20 -16 -2 -9 -14 4 -23 2 -23 -4 0 -6 7 -11 15
-11 8 0 15 -5 15 -11 0 -5 -5 -7 -12 -3 -7 4 -8 3 -4 -5 6 -8 12 -9 20 -2 7 6
15 9 17 6 3 -2 5 4 5 15 0 11 -11 23 -26 30 -24 10 -24 10 -5 -6z"/>
<path d="M783 2445 c3 -11 8 -34 12 -51 3 -17 20 -44 37 -60 17 -16 28 -24 25
-18 -4 6 -7 36 -8 65 -1 30 -4 48 -7 41 -3 -10 -13 -5 -34 15 -26 24 -30 25
-25 8z"/>
<path d="M952 2430 c0 -19 2 -27 5 -17 2 9 2 25 0 35 -3 9 -5 1 -5 -18z"/>
<path d="M1216 2433 c-2 -10 -1 -36 4 -58 8 -39 8 -39 9 18 1 57 -3 72 -13 40z"/>
<path d="M1123 2421 c-1 -13 7 -17 33 -17 39 0 45 11 12 22 -38 13 -44 12 -45
-5z"/>
<path d="M371 2406 c-16 -17 -21 -31 -16 -46 7 -22 7 -22 36 6 30 29 39 64 16
64 -8 0 -24 -11 -36 -24z"/>
<path d="M1210 2306 c0 -14 4 -27 8 -30 5 -3 6 8 4 25 -5 35 -12 38 -12 5z"/>
<path d="M342 2313 c-6 -2 -9 -10 -5 -16 4 -6 0 -8 -10 -4 -10 4 -17 2 -17 -5
0 -6 -8 -17 -17 -25 -10 -8 -4 -7 14 3 26 15 34 15 47 5 11 -9 16 -10 16 -2 0
6 -5 11 -11 11 -6 0 -9 9 -6 20 3 11 4 20 4 19 -1 0 -8 -3 -15 -6z"/>
<path d="M881 2287 c-1 -17 -5 -26 -11 -22 -6 4 -17 1 -25 -5 -10 -9 -27 -9
-61 -2 -47 10 -86 3 -99 -17 -3 -6 1 -11 9 -11 9 0 16 -7 16 -15 0 -30 -32
-64 -76 -81 l-43 -17 18 -23 c10 -13 22 -41 25 -61 4 -21 12 -53 17 -71 11
-33 11 -33 36 -17 14 9 26 15 28 13 2 -2 5 -35 5 -73 2 -77 -18 -194 -37 -217
-18 -21 -53 -100 -53 -121 0 -10 -14 -47 -31 -83 -29 -59 -36 -66 -93 -93 -74
-36 -135 -87 -185 -155 -56 -77 -57 -80 -6 -42 25 20 72 43 103 52 175 48 213
73 232 154 7 28 14 50 17 50 3 0 28 -20 56 -44 81 -69 118 -83 232 -90 197
-11 386 -82 498 -185 34 -32 70 -61 81 -64 10 -4 44 -26 77 -48 54 -38 100
-52 117 -34 4 3 7 34 7 68 l0 61 -44 30 c-25 16 -68 39 -97 51 -28 12 -80 47
-115 78 -70 63 -187 129 -261 147 -31 8 -49 19 -53 31 -4 11 -14 23 -24 29
-11 6 -20 25 -24 52 -3 24 -13 48 -23 55 -17 13 -17 16 0 81 9 37 28 84 42
104 13 21 24 44 24 52 0 8 22 33 49 56 l50 41 -15 41 c-7 22 -18 68 -24 101
-10 66 -33 99 -83 117 -18 6 -40 16 -49 21 -10 5 -19 9 -20 9 -2 0 -4 -21 -5
-47 -3 -66 -16 -72 -47 -21 -37 61 -76 106 -76 88 0 -18 -32 33 -48 75 l-10
30 -1 -28z m187 -262 c-3 -3 -9 2 -12 12 -6 14 -5 15 5 6 7 -7 10 -15 7 -18z
m392 -842 c37 -24 90 -75 102 -98 9 -17 6 -16 -18 5 -16 14 -33 30 -39 37 -5
7 -27 26 -49 42 -41 33 -38 43 4 14z"/>
<path d="M194 2232 c-47 -43 -84 -93 -84 -115 0 -34 24 -26 76 25 29 30 57 52
61 49 3 -3 3 -1 0 5 -4 6 0 19 7 30 15 20 11 44 -8 44 -6 -1 -29 -18 -52 -38z"/>
<path d="M943 2253 c0 -11 7 -20 14 -20 10 0 10 4 1 16 -7 9 -13 18 -15 20 -1
2 -1 -5 0 -16z"/>
<path d="M652 2196 c-15 -18 -18 -26 -8 -26 17 0 39 26 34 40 -2 6 -13 0 -26
-14z"/>
<path d="M990 2210 c8 -5 28 -10 44 -10 39 0 30 6 -19 13 -27 4 -35 3 -25 -3z"/>
<path d="M280 2200 c-9 -6 -10 -10 -3 -10 6 0 15 5 18 10 8 12 4 12 -15 0z"/>
<path d="M1030 2141 c0 -6 4 -12 8 -15 5 -3 9 1 9 9 0 8 -4 15 -9 15 -4 0 -8
-4 -8 -9z"/>
<path d="M49 2043 l-43 -58 51 44 c32 26 50 48 46 57 -3 8 -6 14 -8 14 -1 0
-22 -26 -46 -57z"/>
<path d="M550 2096 c0 -2 7 -7 16 -10 8 -3 12 -2 9 4 -6 10 -25 14 -25 6z"/>
<path d="M1588 1653 c7 -3 16 -2 19 1 4 3 -2 6 -13 5 -11 0 -14 -3 -6 -6z"/>
<path d="M1578 1613 c7 -3 16 -2 19 1 4 3 -2 6 -13 5 -11 0 -14 -3 -6 -6z"/>
<path d="M676 1355 c-9 -14 -16 -34 -15 -43 3 -36 -1 -51 -14 -46 -28 10 -58
-29 -66 -86 -4 -30 -18 -79 -30 -108 -30 -74 -28 -125 5 -151 28 -22 74 -28
74 -10 0 5 5 7 12 3 7 -4 8 -3 4 4 -4 6 -14 8 -23 5 -12 -5 -14 -3 -8 8 7 11
5 11 -10 -1 -17 -14 -17 -13 -11 10 6 21 5 22 -4 8 -6 -10 -16 -18 -22 -18 -7
0 -6 6 2 15 11 13 10 14 -5 8 -15 -5 -17 -3 -12 11 4 10 7 20 7 23 0 3 6 1 13
-4 6 -6 26 -15 44 -21 34 -11 62 0 67 28 2 16 34 80 40 80 1 0 18 -8 37 -17
22 -12 53 -17 88 -16 46 2 59 -2 89 -27 l35 -29 17 32 c19 36 89 77 130 77 26
0 29 -5 45 -65 14 -51 20 -62 29 -51 6 8 28 19 49 26 20 6 37 16 37 21 0 6
-10 53 -22 104 -24 106 -16 99 -142 126 -46 10 -61 10 -64 1 -2 -7 -13 -12
-24 -12 -41 0 -101 -25 -129 -53 -28 -28 -30 -28 -54 -13 -32 21 -31 31 6 66
30 27 31 28 10 35 -17 5 -28 0 -46 -21 -19 -22 -27 -26 -37 -16 -9 9 -8 16 6
31 17 19 17 20 -22 45 -22 14 -47 34 -55 46 -14 21 -14 21 -31 -5z"/>
<path d="M274 1098 l-19 -23 23 19 c21 18 27 26 19 26 -2 0 -12 -10 -23 -22z"/>
<path d="M176 945 c-9 -26 -7 -32 5 -12 6 10 9 21 6 23 -2 3 -7 -2 -11 -11z"/>
<path d="M1163 884 c-12 -19 -18 -36 -12 -40 5 -3 8 -2 7 3 -1 4 6 21 16 36
10 15 17 29 15 31 -2 2 -14 -12 -26 -30z"/>
<path d="M1430 371 c0 -21 -22 -33 -45 -25 -8 4 -15 13 -15 22 0 12 -3 13 -11
5 -15 -15 15 -230 36 -253 8 -9 18 -31 21 -49 4 -17 16 -38 28 -46 39 -28 126
-13 126 21 0 13 -9 15 -53 10 -59 -7 -87 -1 -87 19 0 19 7 22 63 29 32 5 54 3
63 -5 20 -17 17 4 -5 32 -25 32 -91 193 -91 223 0 13 -7 26 -15 30 -10 3 -15
-1 -15 -13z"/>
</g>
</svg>
