<?xml version="1.0" standalone="no"?>
<!DOCTYPE svg PUBLIC "-//W3C//DTD SVG 20010904//EN"
 "http://www.w3.org/TR/2001/REC-SVG-20010904/DTD/svg10.dtd">
<svg version="1.0" xmlns="http://www.w3.org/2000/svg"
 width="920.000000pt" height="685.000000pt" viewBox="0 0 920.000000 685.000000"
 preserveAspectRatio="xMidYMid meet">

<g transform="translate(0.000000,685.000000) scale(0.100000,-0.100000)"
fill="#000000" stroke="none">
<path d="M5597 6300 c64 -68 76 -88 47 -75 -19 8 -256 77 -306 89 -16 3 -28 4
-28 1 0 -3 31 -52 70 -109 65 -98 93 -156 74 -156 -19 0 -171 31 -202 41 -18
6 -36 8 -39 5 -3 -3 23 -37 57 -76 34 -39 60 -74 56 -77 -3 -4 -30 1 -58 10
l-52 16 47 -47 c39 -40 47 -54 47 -85 0 -23 5 -40 14 -43 17 -7 71 -81 81
-112 5 -19 3 -25 -14 -29 -24 -6 -29 -33 -6 -33 18 0 20 -16 3 -23 -7 -3 5 -3
28 0 l40 5 0 -38 c0 -22 3 -46 7 -54 6 -12 -2 -19 -29 -29 -26 -9 -40 -23 -51
-49 -17 -42 -19 -40 -56 60 -14 36 -23 69 -20 72 4 3 -1 6 -10 6 -23 0 -40
-31 -77 -143 -31 -95 -34 -100 -77 -125 -150 -88 -345 -221 -391 -265 -72 -70
-135 -157 -227 -311 -85 -143 -92 -159 -140 -328 -18 -64 -39 -127 -46 -140
-34 -64 -152 -218 -246 -323 -35 -38 -63 -74 -63 -80 0 -6 11 -27 24 -46 14
-20 37 -58 52 -85 15 -27 40 -65 55 -85 34 -43 34 -45 14 -66 -21 -21 -12 -28
14 -11 18 11 23 10 38 -12 25 -36 112 -132 141 -156 24 -19 25 -23 10 -37 -8
-9 -30 -17 -49 -19 l-34 -4 28 -8 c22 -7 35 -4 58 13 32 24 40 14 11 -12 -10
-10 -34 -17 -53 -18 l-34 -1 34 -11 c32 -10 36 -9 63 22 l30 33 50 -21 c28
-12 89 -29 135 -38 60 -13 85 -22 89 -35 5 -16 59 -38 96 -38 9 0 20 -4 23
-10 3 -5 15 -10 25 -10 24 0 36 -18 21 -33 -17 -17 -13 -27 8 -27 33 0 34 -34
4 -92 -15 -29 -34 -58 -43 -65 -8 -7 -10 -13 -4 -13 22 0 51 35 73 88 17 42
19 56 10 73 -11 22 -10 22 52 14 35 -5 77 -8 92 -7 16 1 54 -13 84 -30 l56
-32 -34 -12 c-54 -20 -20 -16 51 6 59 18 76 19 190 9 69 -5 131 -12 138 -14 6
-2 12 2 12 9 0 14 -87 26 -192 26 -47 0 -56 3 -52 15 5 13 2 13 -30 0 -49 -21
-80 -19 -129 8 -23 12 -43 23 -45 24 -2 1 10 14 27 30 32 32 81 125 81 158 1
53 23 85 33 48 4 -16 5 -16 6 -1 0 9 -3 20 -9 23 -5 3 -10 15 -10 25 0 11 -10
40 -22 65 -12 24 -19 47 -17 50 3 3 31 6 62 6 52 2 59 -1 102 -39 30 -27 52
-39 63 -35 10 4 12 8 4 11 -7 2 -12 23 -12 52 0 47 2 50 63 100 34 29 66 60
71 69 5 9 14 19 20 23 6 4 8 8 4 8 -8 0 33 114 61 168 20 38 200 222 218 222
9 0 33 42 33 59 0 13 -96 4 -127 -13 -45 -23 -110 -31 -128 -16 -27 22 -16 41
41 67 51 23 63 25 140 18 46 -4 84 -11 84 -16 0 -6 5 -7 10 -4 23 14 6 23 -62
30 -40 4 -106 6 -146 5 -76 -1 -135 12 -164 38 -22 19 -23 52 -2 52 12 0 15 6
10 24 -11 45 7 49 247 48 224 0 293 -8 317 -37 11 -13 14 -13 27 2 13 17 14
17 8 -3 -4 -15 4 -32 27 -58 58 -66 85 -169 56 -209 -7 -9 -28 -18 -46 -20
-17 -2 -35 -7 -40 -12 -4 -5 -2 -5 4 -2 7 4 23 -2 37 -13 28 -22 62 -25 104
-9 15 6 46 11 68 12 27 0 31 1 13 4 -26 4 -27 6 -25 61 1 41 7 61 20 70 25 19
21 37 -15 66 -66 52 -87 71 -87 82 -1 16 -51 55 -61 49 -6 -4 -10 -2 -10 3 0
5 -18 17 -40 28 -22 10 -40 22 -40 25 0 18 67 89 85 89 29 0 125 -29 151 -45
18 -12 31 -12 83 1 34 8 81 23 103 34 27 13 65 21 107 22 l66 1 -63 6 -64 6
23 29 23 29 125 -6 c102 -6 133 -11 169 -29 42 -22 47 -28 83 -122 22 -55 39
-106 39 -114 0 -49 -87 -172 -121 -172 -6 0 -18 -7 -27 -17 -9 -9 -12 -14 -7
-12 137 63 188 95 215 136 34 50 37 77 14 154 -17 56 -43 100 -79 132 -27 24
-135 77 -157 77 -30 0 -20 17 20 33 25 11 31 16 16 16 -11 1 -29 -6 -40 -14
-10 -8 -35 -15 -54 -15 -19 0 -54 -9 -77 -20 -24 -10 -43 -14 -43 -9 0 6 11
34 25 62 29 63 83 128 128 156 34 21 53 19 157 -14 22 -7 23 -6 12 8 -8 9 -19
14 -27 11 -7 -3 -16 0 -21 7 -5 8 -3 10 6 4 8 -5 11 -3 8 6 -2 7 -28 23 -56
34 -37 14 -60 31 -77 58 -19 26 -33 37 -51 37 -14 0 -45 13 -68 29 l-43 30 24
71 c16 48 29 123 39 223 8 83 16 152 18 154 7 7 33 -83 35 -124 1 -7 6 -13 12
-13 7 0 9 34 4 113 -6 89 -16 141 -50 255 -53 175 -88 233 -177 293 -35 23
-82 64 -106 90 -38 43 -54 52 -125 74 -100 30 -199 45 -335 50 -75 3 -147 15
-265 44 -89 22 -177 42 -195 46 l-34 7 59 -62z m961 -615 c7 -14 12 -35 12
-46 0 -11 4 -18 9 -15 5 4 7 -2 5 -11 -3 -10 2 -48 9 -86 8 -37 11 -69 7 -72
-13 -8 -230 -25 -319 -25 -82 0 -83 0 -77 23 3 12 9 41 12 65 4 23 11 42 16
42 5 0 6 10 3 21 -5 14 -3 19 3 15 6 -3 13 6 17 21 15 67 69 89 226 92 61 1
67 -1 77 -24z m-415 -257 c-5 -9 -72 -7 -78 2 -3 4 4 15 15 25 11 10 17 22 14
27 -3 5 5 25 18 43 l23 35 6 -63 c4 -34 5 -65 2 -69z m-437 27 c16 -25 16 -26
-27 -66 -33 -31 -36 -36 -12 -20 43 29 46 27 40 -19 -3 -22 -1 -38 3 -35 5 3
8 -26 8 -64 0 -64 -2 -70 -21 -74 -21 -3 -21 -4 -2 -11 47 -18 61 -29 83 -61
21 -30 58 -146 75 -234 6 -30 5 -32 -9 -20 -19 15 -216 238 -227 256 -9 15 24
73 42 73 12 0 11 3 -1 18 -9 9 -32 54 -52 99 -36 81 -37 83 -20 115 25 51 45
68 75 68 19 0 34 -8 45 -25z m904 -39 c0 -2 -9 -24 -20 -48 -11 -25 -27 -76
-35 -114 -20 -89 -44 -144 -63 -144 -8 0 -29 -11 -47 -24 -73 -56 -134 -67
-240 -42 -33 8 -66 11 -75 6 -12 -6 -141 -30 -164 -30 -12 0 -6 130 9 207 16
84 33 133 45 133 5 0 16 3 24 6 12 5 19 -2 27 -24 15 -44 47 -51 76 -18 13 15
23 22 23 17 0 -6 7 -11 16 -11 11 0 14 6 9 21 -7 20 -7 20 21 2 16 -10 25 -12
20 -5 -6 10 -1 11 21 6 l28 -6 -25 18 -25 19 55 7 c30 3 82 6 114 7 l60 1 -26
-27 c-15 -16 -29 -41 -32 -58 l-6 -30 11 27 c9 23 16 27 47 25 29 -2 39 2 47
20 7 17 15 21 32 17 14 -4 23 -2 23 5 0 6 -8 11 -17 12 -10 0 -2 7 17 14 37
14 50 17 50 11z m-463 -32 c-3 -3 -12 -4 -19 -1 -8 3 -5 6 6 6 11 1 17 -2 13
-5z m-7 -44 c0 -5 -2 -10 -4 -10 -3 0 -8 5 -11 10 -3 6 -1 10 4 10 6 0 11 -4
11 -10z m-344 -235 c-5 -15 -46 57 -46 81 0 11 8 45 17 75 l17 54 8 -100 c4
-55 6 -104 4 -110z m864 76 c0 -67 0 -68 -25 -63 -14 2 -25 8 -25 12 0 12 42
120 46 120 2 0 4 -31 4 -69z m-1120 41 c0 -13 -12 -22 -22 -16 -10 6 -1 24 13
24 5 0 9 -4 9 -8z m57 -84 c-3 -8 -6 -5 -6 6 -1 11 2 17 5 13 3 -3 4 -12 1
-19z m318 -115 c-2 -7 9 -20 25 -28 55 -29 84 -123 56 -188 -8 -20 -21 -38
-28 -38 -23 -2 -43 3 -56 14 -10 8 -6 13 17 23 28 12 31 17 31 57 0 57 -32
101 -66 93 -28 -7 -31 6 -7 29 12 13 13 19 4 24 -8 6 -10 21 -6 47 11 65 18
71 26 24 5 -25 7 -51 4 -57z m395 -202 c0 -15 -121 -93 -145 -93 -52 0 -155
14 -160 22 -8 13 5 18 76 30 85 14 105 18 164 34 62 18 65 18 65 7z m-1712
-982 c45 -9 50 -13 54 -40 3 -16 2 -32 -2 -34 -21 -13 -180 49 -188 73 -5 15
67 16 136 1z m200 -49 c65 -16 154 -33 197 -37 l80 -8 0 -108 c0 -72 4 -110
12 -115 34 -21 43 -117 18 -198 -17 -56 -71 -120 -109 -130 -43 -10 -246 45
-277 76 -25 24 -26 31 -27 132 -1 58 -6 146 -11 195 -11 95 -13 223 -5 223 3
0 58 -13 122 -30z m116 -606 c18 -7 12 -24 -10 -24 -8 0 -14 7 -14 15 0 17 2
18 24 9z"/>
<path d="M6526 5652 c-4 -4 -28 -8 -52 -8 -28 -1 -52 -8 -65 -20 -25 -23 -81
-133 -74 -145 11 -16 128 2 153 24 39 36 23 107 -25 107 -14 0 -23 3 -20 7 4
3 24 6 46 5 23 -1 44 4 50 12 12 15 0 31 -13 18z m-104 -82 c-3 -21 0 -32 12
-36 9 -4 20 -3 24 1 4 4 1 10 -5 12 -16 6 -17 29 -3 38 14 9 40 -13 40 -33 0
-21 -30 -52 -50 -52 -35 0 -57 48 -39 82 15 28 26 21 21 -12z m-42 -60 c0 -5
-5 -10 -11 -10 -5 0 -7 5 -4 10 3 6 8 10 11 10 2 0 4 -4 4 -10z"/>
<path d="M5640 5460 c0 -5 7 -7 15 -4 8 4 15 8 15 10 0 2 -7 4 -15 4 -8 0 -15
-4 -15 -10z"/>
<path d="M6458 5303 c6 -2 18 -2 25 0 6 3 1 5 -13 5 -14 0 -19 -2 -12 -5z"/>
<path d="M6435 5120 c-10 -11 -13 -20 -8 -20 13 0 38 29 31 35 -3 3 -13 -4
-23 -15z"/>
<path d="M6388 5093 c7 -3 16 -2 19 1 4 3 -2 6 -13 5 -11 0 -14 -3 -6 -6z"/>
<path d="M6304 4482 c3 -5 17 -12 32 -15 30 -5 20 8 -15 18 -15 4 -21 3 -17
-3z"/>
<path d="M7289 4473 c-13 -17 -13 -17 6 -3 11 8 22 16 24 17 2 2 0 3 -6 3 -6
0 -17 -8 -24 -17z"/>
<path d="M5928 4373 c7 -3 16 -2 19 1 4 3 -2 6 -13 5 -11 0 -14 -3 -6 -6z"/>
<path d="M6715 4174 l-40 -14 55 7 c30 3 63 6 73 5 9 0 17 3 17 9 0 13 -58 9
-105 -7z"/>
<path d="M6473 4161 c-34 -35 -71 -81 -66 -81 3 0 16 9 30 20 14 11 37 21 52
21 17 1 20 3 9 6 -21 5 -23 24 -6 41 7 7 9 12 5 12 -4 0 -15 -8 -24 -19z"/>
<path d="M6848 4163 c7 -3 16 -2 19 1 4 3 -2 6 -13 5 -11 0 -14 -3 -6 -6z"/>
<path d="M6552 4153 c-18 -2 -30 -8 -27 -13 7 -11 65 -2 80 11 9 9 8 9 -53 2z"/>
<path d="M6638 4153 c6 -2 18 -2 25 0 6 3 1 5 -13 5 -14 0 -19 -2 -12 -5z"/>
<path d="M5942 4090 c-18 -29 -15 -38 4 -12 9 13 14 25 12 27 -2 2 -9 -5 -16
-15z"/>
<path d="M6063 4083 c-23 -9 -14 -20 12 -15 14 2 22 8 19 13 -6 10 -12 10 -31
2z"/>
<path d="M6093 3713 c9 -2 23 -2 30 0 6 3 -1 5 -18 5 -16 0 -22 -2 -12 -5z"/>
<path d="M6140 3706 c0 -2 8 -10 18 -17 15 -13 16 -12 3 4 -13 16 -21 21 -21
13z"/>
<path d="M6110 3666 c0 -3 9 -10 20 -16 11 -6 20 -8 20 -6 0 3 -9 10 -20 16
-11 6 -20 8 -20 6z"/>
<path d="M6055 3649 c-4 -6 -5 -12 -2 -15 2 -3 7 2 10 11 7 17 1 20 -8 4z"/>
<path d="M6188 3619 c2 -22 -1 -46 -8 -54 -7 -9 -8 -15 -2 -15 21 0 33 29 26
64 -9 50 -20 53 -16 5z"/>
<path d="M6017 3510 c-5 -22 -12 -30 -29 -31 -19 -1 -18 -3 7 -9 17 -4 45 -8
64 -9 19 0 43 -9 54 -18 11 -10 18 -13 15 -8 -2 6 -10 25 -17 43 -9 22 -25 37
-48 47 -20 8 -37 15 -38 15 -1 0 -5 -13 -8 -30z"/>
<path d="M5708 3473 c-10 -2 -18 -6 -18 -8 0 -2 23 -25 50 -51 28 -26 53 -57
56 -70 13 -50 -52 -227 -98 -266 -20 -18 -20 -18 15 -18 19 0 40 -7 48 -16 9
-11 25 -15 51 -12 21 2 38 0 38 -5 0 -5 8 -6 18 -3 9 3 23 2 31 -3 11 -7 8
-25 -15 -97 -15 -49 -33 -96 -40 -104 -12 -16 -184 -538 -184 -560 0 -8 -10
-35 -21 -61 -16 -35 -26 -46 -38 -41 -14 5 -14 3 -3 -11 8 -9 11 -21 7 -27 -3
-5 -3 -10 2 -10 4 0 15 13 25 29 9 16 29 37 45 47 15 10 56 40 89 66 34 26 67
48 74 48 21 0 0 18 -28 25 -15 3 -35 12 -45 20 -18 13 -17 16 14 61 17 26 27
44 21 40 -7 -4 -12 -5 -12 -3 0 5 123 247 164 322 33 61 45 67 91 50 11 -4 1
5 -22 19 -41 26 -41 27 -48 99 -4 39 -5 78 -3 86 2 8 -8 14 -27 17 -16 2 -43
8 -60 12 -29 8 -30 10 -26 58 2 27 7 57 12 67 8 14 5 17 -13 17 -20 1 -21 2
-5 11 20 12 24 84 5 92 -8 3 -6 6 5 6 32 2 7 65 -57 143 -30 37 -51 43 -98 31z
m122 -263 c0 -5 -5 -10 -11 -10 -5 0 -7 5 -4 10 3 6 8 10 11 10 2 0 4 -4 4
-10z m-25 -908 c0 -11 -113 -102 -127 -102 -4 0 9 31 29 70 l36 69 31 -13 c17
-7 31 -18 31 -24z"/>
<path d="M3866 3423 c-6 -14 -5 -15 5 -6 7 7 10 15 7 18 -3 3 -9 -2 -12 -12z"/>
<path d="M3996 3351 c-4 -7 -5 -15 -2 -18 9 -9 19 4 14 18 -4 11 -6 11 -12 0z"/>
<path d="M6121 3344 c0 -11 3 -14 6 -6 3 7 2 16 -1 19 -3 4 -6 -2 -5 -13z"/>
<path d="M4108 3343 c23 -2 61 -2 85 0 23 2 4 4 -43 4 -47 0 -66 -2 -42 -4z"/>
<path d="M3970 3304 c0 -8 5 -12 10 -9 6 3 10 10 10 16 0 5 -4 9 -10 9 -5 0
-10 -7 -10 -16z"/>
<path d="M3616 3243 c-31 -37 -56 -76 -56 -86 0 -20 -58 -109 -124 -190 -23
-29 -57 -73 -74 -100 -18 -26 -44 -59 -57 -73 -13 -14 -47 -59 -74 -99 -48
-72 -50 -75 -44 -129 6 -55 7 -57 63 -94 31 -21 71 -44 88 -51 34 -14 51 -46
33 -64 -16 -16 -13 -31 3 -18 16 13 19 10 86 -96 22 -34 45 -65 51 -69 13 -8
14 -10 -52 91 -26 39 -56 89 -68 113 l-22 43 64 87 c119 163 172 231 185 236
7 3 22 -7 35 -22 48 -59 165 -170 227 -214 67 -47 214 -128 233 -128 6 0 30
-9 54 -21 l43 -21 45 39 c24 21 44 46 45 56 0 10 -4 16 -9 12 -13 -8 -142 45
-224 92 -114 65 -266 211 -323 312 -26 46 -25 63 1 41 16 -14 21 0 5 16 -6 6
-3 19 9 37 17 26 19 27 35 12 12 -13 16 -13 16 -3 0 8 -4 18 -10 24 -6 6 7 33
40 79 55 76 55 78 38 97 -17 18 -36 48 -47 73 -9 21 -41 53 -41 41 0 -3 -22 5
-50 19 -27 14 -54 25 -59 25 -5 0 -35 -30 -65 -67z"/>
<path d="M3950 3273 c0 -5 -16 -26 -35 -46 -41 -42 -41 -43 26 -21 56 18 64
27 18 17 l-31 -6 17 27 c10 15 15 29 11 33 -3 3 -6 2 -6 -4z"/>
<path d="M4035 3240 c-3 -5 1 -10 10 -10 9 0 13 5 10 10 -3 6 -8 10 -10 10 -2
0 -7 -4 -10 -10z"/>
<path d="M4005 3230 c-3 -5 -1 -10 4 -10 6 0 11 5 11 10 0 6 -2 10 -4 10 -3 0
-8 -4 -11 -10z"/>
<path d="M5642 3120 c-18 -17 -39 -30 -47 -30 -18 0 -20 -17 -2 -23 12 -4 75
44 90 70 13 22 -6 14 -41 -17z"/>
<path d="M4583 3133 c9 -2 23 -2 30 0 6 3 -1 5 -18 5 -16 0 -22 -2 -12 -5z"/>
<path d="M5085 3034 c-19 -16 -19 -16 5 -9 31 9 50 25 30 25 -8 0 -24 -8 -35
-16z"/>
<path d="M5566 3035 c5 -12 -6 -15 -65 -16 -39 -1 -75 -3 -81 -4 -5 -1 -21 -3
-35 -4 -14 0 -25 -6 -25 -12 0 -6 9 -8 23 -3 26 9 323 7 352 -3 18 -5 18 -4 5
12 -12 14 -24 16 -71 12 -47 -5 -59 -3 -77 13 -25 24 -33 25 -26 5z"/>
<path d="M5755 2961 c7 -21 5 -23 -16 -17 -13 3 -44 8 -69 11 l-45 5 40 -11
c22 -5 50 -12 63 -15 20 -4 23 -9 17 -37 -7 -32 -6 -32 14 7 19 35 19 41 5 60
-16 21 -16 21 -9 -3z"/>
<path d="M4720 2963 c-8 -2 -24 -8 -35 -13 -11 -5 -46 -14 -78 -20 -32 -6 -70
-18 -85 -27 -27 -15 -27 -15 -2 -10 42 8 212 56 218 62 8 8 -2 13 -18 8z"/>
<path d="M4821 2936 c-9 -11 -9 -16 0 -21 10 -7 28 10 29 28 0 12 -17 8 -29
-7z"/>
<path d="M5800 2870 c6 -11 13 -20 16 -20 2 0 0 9 -6 20 -6 11 -13 20 -16 20
-2 0 0 -9 6 -20z"/>
<path d="M3880 2853 c0 -13 29 -38 35 -31 3 3 -4 13 -15 23 -11 10 -20 13 -20
8z"/>
<path d="M5730 2825 c0 -8 5 -15 10 -15 6 0 10 7 10 15 0 8 -4 15 -10 15 -5 0
-10 -7 -10 -15z"/>
<path d="M4907 2771 c-32 -16 -66 -31 -75 -34 -9 -3 -26 -8 -37 -13 -18 -7
-19 -6 -6 9 8 10 11 20 8 24 -7 6 -46 -36 -47 -49 0 -4 -21 -17 -47 -29 -95
-41 -233 -113 -228 -117 2 -3 19 2 37 11 139 65 212 97 215 93 2 -2 -7 -23
-20 -48 l-24 -44 44 -16 c25 -9 46 -12 49 -6 3 5 57 8 120 7 63 -1 117 1 119
3 6 6 11 5 -159 13 -77 3 -141 7 -143 9 -3 3 24 71 34 85 2 3 21 4 42 3 22 -2
42 2 46 8 4 6 -8 10 -32 10 l-38 0 45 21 c25 11 68 31 96 45 28 13 56 24 62
24 6 0 14 5 17 10 11 18 -19 11 -78 -19z"/>
<path d="M6071 2796 c2 -2 15 -9 29 -15 24 -11 24 -11 6 3 -16 13 -49 24 -35
12z"/>
<path d="M3950 2786 c0 -8 77 -78 99 -90 9 -5 14 -7 11 -4 -72 67 -110 99
-110 94z"/>
<path d="M5721 2764 c0 -11 3 -14 6 -6 3 7 2 16 -1 19 -3 4 -6 -2 -5 -13z"/>
<path d="M3620 2731 c0 -5 5 -13 10 -16 6 -3 10 -2 10 4 0 5 -4 13 -10 16 -5
3 -10 2 -10 -4z"/>
<path d="M6174 2712 c-51 -5 -131 -31 -144 -47 -10 -12 -4 -12 32 4 24 10 63
22 86 26 36 6 46 3 77 -21 45 -34 51 -28 10 11 -23 22 -39 29 -61 27z"/>
<path d="M4082 2674 c10 -10 20 -16 22 -13 3 3 -5 11 -17 18 -21 13 -21 12 -5
-5z"/>
<path d="M4940 2655 c0 -2 21 -18 48 -36 26 -18 54 -40 62 -50 19 -23 67 -42
75 -29 4 6 -4 14 -17 19 -13 5 -37 20 -54 33 -47 39 -114 76 -114 63z"/>
<path d="M5909 2563 c-36 -38 -71 -77 -78 -88 -8 -11 7 3 33 30 25 28 64 67
86 88 21 20 36 37 32 37 -4 0 -37 -30 -73 -67z"/>
<path d="M3710 2606 c0 -2 8 -10 18 -17 15 -13 16 -12 3 4 -13 16 -21 21 -21
13z"/>
<path d="M4205 2590 c3 -5 8 -10 11 -10 2 0 4 5 4 10 0 6 -5 10 -11 10 -5 0
-7 -4 -4 -10z"/>
<path d="M4264 2560 c21 -11 54 -22 73 -26 41 -8 38 -25 -7 -40 -25 -8 -29
-12 -16 -17 11 -4 30 3 51 20 18 15 41 28 50 29 29 4 45 13 45 24 0 7 -6 8
-19 0 -28 -14 -93 -12 -127 4 -16 7 -42 16 -59 20 -27 5 -26 4 9 -14z"/>
<path d="M4578 2563 c7 -3 16 -2 19 1 4 3 -2 6 -13 5 -11 0 -14 -3 -6 -6z"/>
<path d="M4505 2550 c-3 -5 -1 -10 4 -10 6 0 11 5 11 10 0 6 -2 10 -4 10 -3 0
-8 -4 -11 -10z"/>
<path d="M4860 2509 c0 -5 5 -7 10 -4 6 3 10 8 10 11 0 2 -4 4 -10 4 -5 0 -10
-5 -10 -11z"/>
<path d="M3835 2375 c23 -19 147 -79 185 -90 14 -3 40 -13 57 -21 l33 -15 -40
-63 c-55 -87 -50 -94 6 -10 25 38 64 88 87 112 46 47 40 58 -8 12 -30 -29 -31
-29 -80 -16 -51 14 -149 53 -220 88 -30 14 -35 15 -20 3z"/>
<path d="M3994 2375 c11 -8 24 -15 30 -15 5 0 1 7 -10 15 -10 8 -23 14 -29 14
-5 0 -1 -6 9 -14z"/>
<path d="M5500 2360 c8 -5 20 -10 25 -10 6 0 3 5 -5 10 -8 5 -19 10 -25 10 -5
0 -3 -5 5 -10z"/>
<path d="M3330 2290 c-9 -6 -10 -10 -3 -10 6 0 15 5 18 10 8 12 4 12 -15 0z"/>
<path d="M5881 2281 c13 -11 26 -17 29 -14 6 6 -30 33 -43 33 -5 0 1 -9 14
-19z"/>
<path d="M3181 2206 c-41 -42 -71 -113 -52 -126 4 -3 11 -17 15 -32 11 -45 89
-151 142 -191 27 -20 73 -49 103 -62 46 -22 52 -27 41 -41 -23 -27 -48 -36
-71 -24 -11 6 -28 10 -37 7 -12 -2 -4 -9 22 -20 l40 -18 36 36 c20 19 43 35
52 35 24 0 119 90 134 127 24 57 18 67 -19 39 -19 -15 -45 -26 -59 -26 -40 0
-140 56 -192 107 -54 55 -71 83 -81 137 -7 32 -4 41 21 67 l28 29 -40 0 c-34
0 -46 -7 -83 -44z"/>
<path d="M5868 2211 c-50 -21 -79 -76 -82 -152 -1 -32 2 -53 5 -47 5 8 29 -8
68 -44 82 -76 181 -125 271 -134 63 -6 69 -8 58 -23 -7 -9 4 0 25 19 81 75
114 148 87 190 -6 10 -10 11 -10 3 0 -28 -40 -53 -83 -53 -96 0 -264 86 -314
159 l-23 33 21 30 c12 16 20 31 18 32 -2 2 -21 -4 -41 -13z"/>
<path d="M3525 2150 c3 -5 11 -10 16 -10 6 0 7 5 4 10 -3 6 -11 10 -16 10 -6
0 -7 -4 -4 -10z"/>
<path d="M3615 2090 c11 -5 27 -9 35 -9 9 0 8 4 -5 9 -11 5 -27 9 -35 9 -9 0
-8 -4 5 -9z"/>
<path d="M3990 2068 c-15 -21 -17 -28 -6 -19 16 13 41 51 33 51 -2 0 -14 -15
-27 -32z"/>
<path d="M6327 2093 c-4 -3 -7 -11 -7 -17 0 -6 5 -5 12 2 6 6 9 14 7 17 -3 3
-9 2 -12 -2z"/>
<path d="M3770 2080 c0 -4 34 -11 75 -16 41 -5 71 -7 67 -3 -10 9 -142 27
-142 19z"/>
<path d="M3725 2070 c3 -5 12 -7 20 -3 21 7 19 13 -6 13 -11 0 -18 -4 -14 -10z"/>
<path d="M3028 1998 c-25 -29 -44 -55 -43 -56 6 -6 96 91 93 100 -2 5 -24 -15
-50 -44z"/>
<path d="M5761 1964 c0 -11 3 -14 6 -6 3 7 2 16 -1 19 -3 4 -6 -2 -5 -13z"/>
<path d="M5741 1904 c0 -11 3 -14 6 -6 3 7 2 16 -1 19 -3 4 -6 -2 -5 -13z"/>
<path d="M2932 1875 c-6 -14 -10 -25 -8 -25 2 0 11 11 20 25 9 14 13 25 8 25
-5 0 -14 -11 -20 -25z"/>
<path d="M5840 1875 c13 -14 26 -25 28 -25 3 0 -5 11 -18 25 -13 14 -26 25
-28 25 -3 0 5 -11 18 -25z"/>
<path d="M5880 1846 c0 -3 9 -10 20 -16 11 -6 20 -8 20 -6 0 3 -9 10 -20 16
-11 6 -20 8 -20 6z"/>
<path d="M5710 1811 c0 -6 4 -13 10 -16 6 -3 7 1 4 9 -7 18 -14 21 -14 7z"/>
<path d="M2875 1800 c-3 -5 -1 -10 4 -10 6 0 11 5 11 10 0 6 -2 10 -4 10 -3 0
-8 -4 -11 -10z"/>
<path d="M6142 1780 c-18 -4 -42 -6 -52 -3 -10 3 -20 0 -24 -5 -4 -6 15 -11
45 -14 41 -2 53 1 60 15 5 9 8 17 7 16 -2 -1 -18 -5 -36 -9z"/>
<path d="M2835 1730 c-3 -5 -1 -10 4 -10 6 0 11 5 11 10 0 6 -2 10 -4 10 -3 0
-8 -4 -11 -10z"/>
<path d="M5888 1713 c7 -3 16 -2 19 1 4 3 -2 6 -13 5 -11 0 -14 -3 -6 -6z"/>
<path d="M6080 1702 c-65 -5 -75 -22 -13 -22 29 0 55 5 58 11 9 14 7 14 -45
11z"/>
<path d="M3218 1614 c13 -9 26 -13 30 -9 8 8 -17 25 -38 25 -9 0 -6 -6 8 -16z"/>
<path d="M5661 1614 c0 -11 3 -14 6 -6 3 7 2 16 -1 19 -3 4 -6 -2 -5 -13z"/>
<path d="M3255 1599 c-4 -6 -5 -13 -2 -16 7 -7 27 6 27 18 0 12 -17 12 -25 -2z"/>
<path d="M2709 1587 c-35 -27 -79 -101 -79 -133 0 -30 -3 -33 -32 -36 -26 -2
-44 -17 -90 -72 -40 -48 -58 -78 -58 -97 0 -19 -6 -30 -20 -34 -10 -3 -29 -22
-40 -41 -12 -18 -25 -34 -28 -34 -4 0 -32 -23 -62 -51 -85 -79 -200 -169 -215
-169 -11 0 -90 -56 -129 -91 -16 -15 0 -20 25 -9 28 12 74 -3 175 -58 119 -65
164 -118 164 -197 0 -31 -9 -45 -71 -105 -40 -38 -80 -72 -90 -75 -21 -7 -64
18 -74 43 -6 17 23 82 38 82 4 0 6 4 2 9 -3 5 10 21 29 36 19 14 37 34 41 43
6 17 -49 -31 -93 -81 -45 -52 -90 -58 -112 -17 -14 26 1 51 70 119 54 53 54
54 13 27 -23 -15 -54 -45 -69 -67 -28 -40 -59 -50 -82 -27 -16 16 -15 45 1 52
6 3 0 3 -14 0 -27 -6 -46 16 -33 37 3 6 0 16 -6 24 -6 8 -9 19 -5 25 3 5 1 10
-5 10 -15 0 -49 -59 -56 -98 -4 -19 -1 -52 5 -74 25 -81 155 -189 261 -215 56
-14 59 -14 96 10 50 31 114 100 149 163 16 27 42 66 58 87 40 51 77 106 78
115 0 4 28 27 62 52 51 38 72 63 125 153 57 95 68 107 92 107 16 0 35 3 43 6
23 9 118 159 112 176 -4 10 8 24 34 41 22 14 56 40 75 58 31 27 36 37 36 75
l0 45 -32 -37 c-29 -33 -36 -36 -71 -31 -46 6 -121 62 -159 119 -32 47 -46
104 -29 121 25 25 0 38 -30 14z m-59 -201 c0 -24 92 -117 147 -148 52 -29 53
-31 37 -49 -22 -25 -38 -24 -99 5 -53 25 -103 72 -128 121 -14 27 -14 33 1 57
17 30 42 38 42 14z"/>
<path d="M3154 1576 c11 -9 28 -16 38 -16 17 0 27 -20 11 -20 -5 0 -30 -21
-58 -46 l-50 -46 72 54 c40 29 72 56 73 60 0 3 -15 9 -32 13 -18 4 -42 9 -53
11 -20 5 -20 5 -1 -10z"/>
<path d="M5964 1553 c10 -10 76 -12 76 -2 0 5 -19 9 -42 9 -23 0 -38 -3 -34
-7z"/>
<path d="M5603 1509 c-22 -24 -37 -54 -44 -90 -8 -35 -21 -62 -36 -75 -27 -23
-96 -172 -89 -191 3 -7 -1 -19 -9 -27 -8 -8 -15 -22 -15 -32 0 -9 -25 -67 -55
-128 -31 -61 -59 -134 -63 -162 -5 -28 -16 -61 -25 -75 -25 -34 -21 -55 15
-89 46 -44 209 -150 304 -198 45 -23 112 -62 149 -88 78 -55 188 -95 259 -96
55 -1 143 31 170 61 9 10 19 37 22 62 5 36 2 49 -16 72 -12 15 -26 27 -32 27
-6 0 -6 -6 2 -15 10 -12 10 -15 -3 -15 -8 0 -22 -3 -31 -6 -12 -4 -16 0 -16
15 0 12 -4 21 -9 21 -5 0 -11 10 -14 22 -4 12 -9 19 -12 16 -4 -3 3 -28 15
-54 21 -45 21 -48 5 -61 -10 -7 -22 -10 -26 -7 -5 3 -22 -5 -38 -17 -35 -26
-55 -21 -112 27 -22 19 -49 34 -59 34 -29 0 -32 15 -11 63 28 64 57 80 155 85
l83 4 21 -33 c16 -25 21 -28 19 -13 -1 11 -15 33 -30 50 -15 16 -37 43 -48 61
-11 17 -32 36 -48 41 -51 18 -138 167 -142 244 -2 25 2 52 8 60 6 7 21 40 33
72 17 44 21 70 16 105 -5 41 -3 51 15 67 12 10 30 36 40 56 22 43 26 128 7
128 -7 0 -24 3 -37 7 -17 4 -22 3 -17 -5 4 -7 2 -12 -3 -12 -6 0 -11 -4 -11
-10 0 -5 13 -7 30 -3 30 5 36 -1 22 -24 -36 -57 -237 -8 -301 73 -24 30 -18
62 8 42 14 -11 14 -11 5 2 -7 8 -13 22 -15 30 -3 11 -13 5 -36 -21z m11 -224
c44 -34 112 -62 169 -70 49 -7 56 -18 34 -49 -11 -15 -20 -16 -74 -7 -65 10
-119 34 -168 74 -27 22 -28 27 -17 51 14 32 16 32 56 1z"/>
<path d="M3010 1466 c0 -3 13 -14 29 -25 25 -18 30 -19 41 -6 11 13 10 14 -2
10 -8 -3 -21 1 -28 10 -11 13 -40 21 -40 11z"/>
<path d="M5725 1450 c3 -5 8 -10 11 -10 2 0 4 5 4 10 0 6 -5 10 -11 10 -5 0
-7 -4 -4 -10z"/>
<path d="M2954 1401 c3 -5 18 -11 33 -14 26 -5 26 -4 8 9 -21 15 -49 19 -41 5z"/>
<path d="M2009 713 c-13 -17 -13 -17 6 -3 11 8 22 16 24 17 2 2 0 3 -6 3 -6 0
-17 -8 -24 -17z"/>
<path d="M1935 651 c-3 -5 -1 -12 5 -16 5 -3 10 1 10 9 0 18 -6 21 -15 7z"/>
<path d="M5958 518 c19 -11 38 -32 43 -44 4 -13 13 -24 19 -24 17 0 -33 68
-58 80 -38 17 -39 11 -4 -12z"/>
<path d="M6130 518 c0 -9 5 -20 10 -23 13 -8 13 5 0 25 -8 13 -10 13 -10 -2z"/>
<path d="M6100 470 c0 -5 5 -10 10 -10 6 0 10 5 10 10 0 6 -4 10 -10 10 -5 0
-10 -4 -10 -10z"/>
<path d="M2191 456 c-1 -15 -6 -17 -27 -12 -25 7 -25 6 -9 -10 15 -15 18 -15
32 -1 8 8 13 21 10 29 -4 8 -6 7 -6 -6z"/>
<path d="M6030 430 c0 -5 5 -10 11 -10 5 0 7 5 4 10 -3 6 -8 10 -11 10 -2 0
-4 -4 -4 -10z"/>
</g>
</svg>
